<?xml version="1.0" encoding="UTF-8"?>
<!DOCTYPE svg PUBLIC "-//W3C//DTD SVG 1.1//EN" "http://www.w3.org/Graphics/SVG/1.1/DTD/svg11.dtd">
<svg xmlns="http://www.w3.org/2000/svg" version="1.1" width="1920px" height="1920px" style="shape-rendering:geometricPrecision; text-rendering:geometricPrecision; image-rendering:optimizeQuality; fill-rule:evenodd; clip-rule:evenodd" xmlns:xlink="http://www.w3.org/1999/xlink">
<g><path style="opacity:1" fill="none" d="M -0.5,-0.5 C 639.5,-0.5 1279.5,-0.5 1919.5,-0.5C 1919.5,639.5 1919.5,1279.5 1919.5,1919.5C 1279.5,1919.5 639.5,1919.5 -0.5,1919.5C -0.5,1279.5 -0.5,639.5 -0.5,-0.5 Z"/></g>
<g><path style="opacity:1" fill="#040403" d="M 909.5,302.5 C 942.833,302.5 976.167,302.5 1009.5,302.5C 1009.5,319.5 1009.5,336.5 1009.5,353.5C 976.167,353.5 942.833,353.5 909.5,353.5C 909.5,336.5 909.5,319.5 909.5,302.5 Z"/></g>
<g><path style="opacity:1" fill="#868787" d="M 909.5,302.5 C 909.5,319.5 909.5,336.5 909.5,353.5C 909.167,353.5 908.833,353.5 908.5,353.5C 891.833,353.5 875.167,353.5 858.5,353.5C 874.992,352.503 891.658,352.17 908.5,352.5C 908.17,335.658 908.503,318.992 909.5,302.5 Z"/></g>
<g><path style="opacity:1" fill="#868787" d="M 1009.5,302.5 C 1010.5,318.992 1010.83,335.658 1010.5,352.5C 1027.34,352.17 1044.01,352.503 1060.5,353.5C 1043.83,353.5 1027.17,353.5 1010.5,353.5C 1010.17,353.5 1009.83,353.5 1009.5,353.5C 1009.5,336.5 1009.5,319.5 1009.5,302.5 Z"/></g>
<g><path style="opacity:1" fill="#020202" d="M 858.5,353.5 C 875.167,353.5 891.833,353.5 908.5,353.5C 908.5,370.167 908.5,386.833 908.5,403.5C 891.833,403.5 875.167,403.5 858.5,403.5C 858.5,386.833 858.5,370.167 858.5,353.5 Z"/></g>
<g><path style="opacity:1" fill="#020202" d="M 1010.5,353.5 C 1027.17,353.5 1043.83,353.5 1060.5,353.5C 1060.5,370.167 1060.5,386.833 1060.5,403.5C 1043.83,403.5 1027.17,403.5 1010.5,403.5C 1010.5,386.833 1010.5,370.167 1010.5,353.5 Z"/></g>
<g><path style="opacity:1" fill="#c19830" d="M 908.5,353.5 C 908.833,353.5 909.167,353.5 909.5,353.5C 942.833,353.5 976.167,353.5 1009.5,353.5C 1009.83,353.5 1010.17,353.5 1010.5,353.5C 1010.5,370.167 1010.5,386.833 1010.5,403.5C 1027.17,403.5 1043.83,403.5 1060.5,403.5C 1060.5,403.833 1060.5,404.167 1060.5,404.5C 1060.5,437.5 1060.5,470.5 1060.5,503.5C 1059.5,487.342 1059.17,471.009 1059.5,454.5C 1026.17,454.5 992.833,454.5 959.5,454.5C 959.5,471.5 959.5,488.5 959.5,505.5C 942.833,505.5 926.167,505.5 909.5,505.5C 909.5,538.833 909.5,572.167 909.5,605.5C 892.5,605.5 875.5,605.5 858.5,605.5C 858.5,622.5 858.5,639.5 858.5,656.5C 841.5,656.5 824.5,656.5 807.5,656.5C 807.5,673.167 807.5,689.833 807.5,706.5C 790.833,706.5 774.167,706.5 757.5,706.5C 757.5,723.167 757.5,739.833 757.5,756.5C 791.337,756.168 825.004,756.502 858.5,757.5C 824.833,757.5 791.167,757.5 757.5,757.5C 757.5,774.167 757.5,790.833 757.5,807.5C 740.325,807.17 723.325,807.503 706.5,808.5C 673.167,808.5 639.833,808.5 606.5,808.5C 606.5,825.167 606.5,841.833 606.5,858.5C 555.833,858.5 505.167,858.5 454.5,858.5C 454.5,875.167 454.5,891.833 454.5,908.5C 437.5,908.5 420.5,908.5 403.5,908.5C 403.5,891.833 403.5,875.167 403.5,858.5C 386.833,858.5 370.167,858.5 353.5,858.5C 353.5,841.833 353.5,825.167 353.5,808.5C 353.5,808.167 353.5,807.833 353.5,807.5C 370.167,807.5 386.833,807.5 403.5,807.5C 403.5,790.833 403.5,774.167 403.5,757.5C 454.167,757.5 504.833,757.5 555.5,757.5C 555.5,740.833 555.5,724.167 555.5,707.5C 555.5,707.167 555.5,706.833 555.5,706.5C 605.833,706.5 656.167,706.5 706.5,706.5C 706.5,689.833 706.5,673.167 706.5,656.5C 706.833,656.5 707.167,656.5 707.5,656.5C 724.167,656.5 740.833,656.5 757.5,656.5C 757.5,639.833 757.5,623.167 757.5,606.5C 774.5,606.5 791.5,606.5 808.5,606.5C 808.5,572.833 808.5,539.167 808.5,505.5C 825.342,505.83 842.008,505.497 858.5,504.5C 858.5,470.833 858.5,437.167 858.5,403.5C 875.167,403.5 891.833,403.5 908.5,403.5C 908.5,386.833 908.5,370.167 908.5,353.5 Z"/></g>
<g><path style="opacity:1" fill="#020202" d="M 1060.5,404.5 C 1077.17,404.5 1093.83,404.5 1110.5,404.5C 1110.5,437.833 1110.5,471.167 1110.5,504.5C 1093.83,504.5 1077.17,504.5 1060.5,504.5C 1060.5,504.167 1060.5,503.833 1060.5,503.5C 1060.5,470.5 1060.5,437.5 1060.5,404.5 Z"/></g>
<g><path style="opacity:1" fill="#434343" d="M 1060.5,404.5 C 1060.5,404.167 1060.5,403.833 1060.5,403.5C 1077.5,403.5 1094.5,403.5 1111.5,403.5C 1111.5,437.167 1111.5,470.833 1111.5,504.5C 1111.17,504.5 1110.83,504.5 1110.5,504.5C 1110.5,471.167 1110.5,437.833 1110.5,404.5C 1093.83,404.5 1077.17,404.5 1060.5,404.5 Z"/></g>
<g><path style="opacity:1" fill="#303128" d="M 858.5,403.5 C 858.5,437.167 858.5,470.833 858.5,504.5C 858.167,504.5 857.833,504.5 857.5,504.5C 857.5,471.167 857.5,437.833 857.5,404.5C 841.167,404.5 824.833,404.5 808.5,404.5C 808.5,437.833 808.5,471.167 808.5,504.5C 808.167,504.5 807.833,504.5 807.5,504.5C 807.5,470.833 807.5,437.167 807.5,403.5C 824.5,403.5 841.5,403.5 858.5,403.5 Z"/></g>
<g><path style="opacity:1" fill="#020102" d="M 857.5,504.5 C 841.167,504.5 824.833,504.5 808.5,504.5C 808.5,471.167 808.5,437.833 808.5,404.5C 824.833,404.5 841.167,404.5 857.5,404.5C 857.5,437.833 857.5,471.167 857.5,504.5 Z"/></g>
<g><path style="opacity:1" fill="#edbf39" d="M 1060.5,503.5 C 1060.5,503.833 1060.5,504.167 1060.5,504.5C 1076.99,505.497 1093.66,505.83 1110.5,505.5C 1110.17,539.004 1110.5,572.338 1111.5,605.5C 1128.17,605.5 1144.83,605.5 1161.5,605.5C 1161.5,605.833 1161.5,606.167 1161.5,606.5C 1161.5,623.167 1161.5,639.833 1161.5,656.5C 1177.5,656.5 1193.5,656.5 1209.5,656.5C 1210.17,656.5 1210.83,656.5 1211.5,656.5C 1211.83,656.5 1212.17,656.5 1212.5,656.5C 1212.5,673.167 1212.5,689.833 1212.5,706.5C 1262.83,706.5 1313.17,706.5 1363.5,706.5C 1363.5,723.5 1363.5,740.5 1363.5,757.5C 1413.83,757.5 1464.17,757.5 1514.5,757.5C 1514.5,774.5 1514.5,791.5 1514.5,808.5C 1531.5,808.5 1548.5,808.5 1565.5,808.5C 1565.5,825.167 1565.5,841.833 1565.5,858.5C 1548.83,858.5 1532.17,858.5 1515.5,858.5C 1515.5,875.167 1515.5,891.833 1515.5,908.5C 1498.5,908.5 1481.5,908.5 1464.5,908.5C 1464.5,925.5 1464.5,942.5 1464.5,959.5C 1447.83,959.5 1431.17,959.5 1414.5,959.5C 1414.5,976.167 1414.5,992.833 1414.5,1009.5C 1397.5,1009.5 1380.5,1009.5 1363.5,1009.5C 1363.5,1026.5 1363.5,1043.5 1363.5,1060.5C 1346.83,1060.5 1330.17,1060.5 1313.5,1060.5C 1313.5,1127.83 1313.5,1195.17 1313.5,1262.5C 1330.17,1262.5 1346.83,1262.5 1363.5,1262.5C 1363.5,1296.17 1363.5,1329.83 1363.5,1363.5C 1379.99,1364.5 1396.66,1364.83 1413.5,1364.5C 1413.17,1381.34 1413.5,1398.01 1414.5,1414.5C 1431.17,1414.5 1447.83,1414.5 1464.5,1414.5C 1464.5,1464.83 1464.5,1515.17 1464.5,1565.5C 1397.17,1565.5 1329.83,1565.5 1262.5,1565.5C 1262.5,1548.83 1262.5,1532.17 1262.5,1515.5C 1229.34,1514.5 1196,1514.17 1162.5,1514.5C 1162.83,1481 1162.5,1447.66 1161.5,1414.5C 1111.34,1413.5 1061,1413.17 1010.5,1413.5C 1010.83,1396.66 1010.5,1379.99 1009.5,1363.5C 976.167,1363.5 942.833,1363.5 909.5,1363.5C 908.503,1379.99 908.17,1396.66 908.5,1413.5C 857.997,1413.17 807.664,1413.5 757.5,1414.5C 756.502,1447.66 756.168,1481 756.5,1514.5C 722.996,1514.17 689.662,1514.5 656.5,1515.5C 656.5,1532.17 656.5,1548.83 656.5,1565.5C 589.167,1565.5 521.833,1565.5 454.5,1565.5C 454.5,1548.83 454.5,1532.17 454.5,1515.5C 471.167,1515.5 487.833,1515.5 504.5,1515.5C 504.5,1498.5 504.5,1481.5 504.5,1464.5C 521.5,1464.5 538.5,1464.5 555.5,1464.5C 555.5,1447.83 555.5,1431.17 555.5,1414.5C 572.167,1414.5 588.833,1414.5 605.5,1414.5C 605.5,1397.5 605.5,1380.5 605.5,1363.5C 622.5,1363.5 639.5,1363.5 656.5,1363.5C 656.829,1329.93 656.496,1296.43 655.5,1263C 672.497,1262.5 689.497,1262.33 706.5,1262.5C 706.5,1212.17 706.5,1161.83 706.5,1111.5C 689.833,1111.5 673.167,1111.5 656.5,1111.5C 656.5,1094.5 656.5,1077.5 656.5,1060.5C 639.5,1060.5 622.5,1060.5 605.5,1060.5C 605.5,1043.5 605.5,1026.5 605.5,1009.5C 588.805,1009.77 572.139,1009.44 555.5,1008.5C 555.5,992.167 555.5,975.833 555.5,959.5C 538.833,959.5 522.167,959.5 505.5,959.5C 505.167,959.5 504.833,959.5 504.5,959.5C 504.5,942.5 504.5,925.5 504.5,908.5C 487.833,908.5 471.167,908.5 454.5,908.5C 454.5,891.833 454.5,875.167 454.5,858.5C 505.167,858.5 555.833,858.5 606.5,858.5C 606.5,841.833 606.5,825.167 606.5,808.5C 639.833,808.5 673.167,808.5 706.5,808.5C 706.5,842.167 706.5,875.833 706.5,909.5C 723.675,909.83 740.675,909.497 757.5,908.5C 757.5,875.167 757.5,841.833 757.5,808.5C 791.167,808.5 824.833,808.5 858.5,808.5C 858.5,841.833 858.5,875.167 858.5,908.5C 875.167,908.5 891.833,908.5 908.5,908.5C 909.498,875.004 909.832,841.337 909.5,807.5C 892.5,807.5 875.5,807.5 858.5,807.5C 858.5,790.833 858.5,774.167 858.5,757.5C 825.004,756.502 791.337,756.168 757.5,756.5C 757.5,739.833 757.5,723.167 757.5,706.5C 774.167,706.5 790.833,706.5 807.5,706.5C 807.5,689.833 807.5,673.167 807.5,656.5C 824.5,656.5 841.5,656.5 858.5,656.5C 858.5,639.5 858.5,622.5 858.5,605.5C 875.5,605.5 892.5,605.5 909.5,605.5C 909.5,572.167 909.5,538.833 909.5,505.5C 926.167,505.5 942.833,505.5 959.5,505.5C 959.5,488.5 959.5,471.5 959.5,454.5C 992.833,454.5 1026.17,454.5 1059.5,454.5C 1059.17,471.009 1059.5,487.342 1060.5,503.5 Z"/></g>
<g><path style="opacity:1" fill="#020202" d="M 807.5,504.5 C 807.5,538.167 807.5,571.833 807.5,605.5C 790.833,605.5 774.167,605.5 757.5,605.5C 757.5,571.833 757.5,538.167 757.5,504.5C 774.167,504.5 790.833,504.5 807.5,504.5 Z"/></g>
<g><path style="opacity:1" fill="#030302" d="M 1111.5,504.5 C 1128.17,504.5 1144.83,504.5 1161.5,504.5C 1161.5,538.167 1161.5,571.833 1161.5,605.5C 1144.83,605.5 1128.17,605.5 1111.5,605.5C 1111.5,571.833 1111.5,538.167 1111.5,504.5 Z"/></g>
<g><path style="opacity:1" fill="#816928" d="M 807.5,504.5 C 807.833,504.5 808.167,504.5 808.5,504.5C 824.833,504.5 841.167,504.5 857.5,504.5C 857.833,504.5 858.167,504.5 858.5,504.5C 842.008,505.497 825.342,505.83 808.5,505.5C 808.5,539.167 808.5,572.833 808.5,606.5C 791.5,606.5 774.5,606.5 757.5,606.5C 757.5,606.167 757.5,605.833 757.5,605.5C 774.167,605.5 790.833,605.5 807.5,605.5C 807.5,571.833 807.5,538.167 807.5,504.5 Z"/></g>
<g><path style="opacity:1" fill="#907324" d="M 1060.5,504.5 C 1077.17,504.5 1093.83,504.5 1110.5,504.5C 1110.83,504.5 1111.17,504.5 1111.5,504.5C 1111.5,538.167 1111.5,571.833 1111.5,605.5C 1110.5,572.338 1110.17,539.004 1110.5,505.5C 1093.66,505.83 1076.99,505.497 1060.5,504.5 Z"/></g>
<g><path style="opacity:1" fill="#020202" d="M 756.5,606.5 C 756.5,622.833 756.5,639.167 756.5,655.5C 740.167,655.5 723.833,655.5 707.5,655.5C 707.5,639.167 707.5,622.833 707.5,606.5C 723.833,606.5 740.167,606.5 756.5,606.5 Z"/></g>
<g><path style="opacity:1" fill="#020202" d="M 1162.5,606.5 C 1178.83,606.5 1195.17,606.5 1211.5,606.5C 1211.5,623.167 1211.5,639.833 1211.5,656.5C 1210.83,656.5 1210.17,656.5 1209.5,656.5C 1194.01,655.504 1178.34,655.17 1162.5,655.5C 1162.5,639.167 1162.5,622.833 1162.5,606.5 Z"/></g>
<g><path style="opacity:1" fill="#474747" d="M 757.5,605.5 C 757.5,605.833 757.5,606.167 757.5,606.5C 757.167,606.5 756.833,606.5 756.5,606.5C 740.167,606.5 723.833,606.5 707.5,606.5C 707.5,622.833 707.5,639.167 707.5,655.5C 707.5,655.833 707.5,656.167 707.5,656.5C 707.167,656.5 706.833,656.5 706.5,656.5C 706.5,639.5 706.5,622.5 706.5,605.5C 723.5,605.5 740.5,605.5 757.5,605.5 Z"/></g>
<g><path style="opacity:1" fill="#474747" d="M 1161.5,606.5 C 1161.5,606.167 1161.5,605.833 1161.5,605.5C 1178.5,605.5 1195.5,605.5 1212.5,605.5C 1212.5,622.5 1212.5,639.5 1212.5,656.5C 1212.17,656.5 1211.83,656.5 1211.5,656.5C 1211.5,639.833 1211.5,623.167 1211.5,606.5C 1195.17,606.5 1178.83,606.5 1162.5,606.5C 1162.17,606.5 1161.83,606.5 1161.5,606.5 Z"/></g>
<g><path style="opacity:1" fill="#342a15" d="M 756.5,606.5 C 756.833,606.5 757.167,606.5 757.5,606.5C 757.5,623.167 757.5,639.833 757.5,656.5C 740.833,656.5 724.167,656.5 707.5,656.5C 707.5,656.167 707.5,655.833 707.5,655.5C 723.833,655.5 740.167,655.5 756.5,655.5C 756.5,639.167 756.5,622.833 756.5,606.5 Z"/></g>
<g><path style="opacity:1" fill="#201c10" d="M 1161.5,606.5 C 1161.83,606.5 1162.17,606.5 1162.5,606.5C 1162.5,622.833 1162.5,639.167 1162.5,655.5C 1178.34,655.17 1194.01,655.504 1209.5,656.5C 1193.5,656.5 1177.5,656.5 1161.5,656.5C 1161.5,639.833 1161.5,623.167 1161.5,606.5 Z"/></g>
<g><path style="opacity:1" fill="#020202" d="M 706.5,656.5 C 706.5,673.167 706.5,689.833 706.5,706.5C 656.167,706.5 605.833,706.5 555.5,706.5C 555.5,689.833 555.5,673.167 555.5,656.5C 605.833,656.5 656.167,656.5 706.5,656.5 Z"/></g>
<g><path style="opacity:1" fill="#020202" d="M 1212.5,656.5 C 1262.83,656.5 1313.17,656.5 1363.5,656.5C 1363.5,673.167 1363.5,689.833 1363.5,706.5C 1313.17,706.5 1262.83,706.5 1212.5,706.5C 1212.5,689.833 1212.5,673.167 1212.5,656.5 Z"/></g>
<g><path style="opacity:1" fill="#464646" d="M 555.5,706.5 C 555.5,706.833 555.5,707.167 555.5,707.5C 555.167,707.5 554.833,707.5 554.5,707.5C 504.5,707.5 454.5,707.5 404.5,707.5C 404.5,723.833 404.5,740.167 404.5,756.5C 404.167,756.5 403.833,756.5 403.5,756.5C 403.5,739.833 403.5,723.167 403.5,706.5C 454.167,706.5 504.833,706.5 555.5,706.5 Z"/></g>
<g><path style="opacity:1" fill="#020202" d="M 554.5,707.5 C 554.5,723.833 554.5,740.167 554.5,756.5C 504.5,756.5 454.5,756.5 404.5,756.5C 404.5,740.167 404.5,723.833 404.5,707.5C 454.5,707.5 504.5,707.5 554.5,707.5 Z"/></g>
<g><path style="opacity:1" fill="#372e16" d="M 554.5,707.5 C 554.833,707.5 555.167,707.5 555.5,707.5C 555.5,724.167 555.5,740.833 555.5,757.5C 504.833,757.5 454.167,757.5 403.5,757.5C 403.5,757.167 403.5,756.833 403.5,756.5C 403.833,756.5 404.167,756.5 404.5,756.5C 454.5,756.5 504.5,756.5 554.5,756.5C 554.5,740.167 554.5,723.833 554.5,707.5 Z"/></g>
<g><path style="opacity:1" fill="#2e2c24" d="M 1363.5,706.5 C 1414.17,706.5 1464.83,706.5 1515.5,706.5C 1515.5,723.5 1515.5,740.5 1515.5,757.5C 1515.17,757.5 1514.83,757.5 1514.5,757.5C 1464.17,757.5 1413.83,757.5 1363.5,757.5C 1363.5,740.5 1363.5,723.5 1363.5,706.5 Z"/></g>
<g><path style="opacity:1" fill="#020202" d="M 1364.5,707.5 C 1414.5,707.5 1464.5,707.5 1514.5,707.5C 1514.5,723.833 1514.5,740.167 1514.5,756.5C 1464.5,756.5 1414.5,756.5 1364.5,756.5C 1364.5,740.167 1364.5,723.833 1364.5,707.5 Z"/></g>
<g><path style="opacity:1" fill="#020201" d="M 353.5,757.5 C 370.167,757.5 386.833,757.5 403.5,757.5C 403.5,774.167 403.5,790.833 403.5,807.5C 386.833,807.5 370.167,807.5 353.5,807.5C 353.5,790.833 353.5,774.167 353.5,757.5 Z"/></g>
<g><path style="opacity:1" fill="#020101" d="M 1515.5,757.5 C 1532.17,757.5 1548.83,757.5 1565.5,757.5C 1565.5,774.167 1565.5,790.833 1565.5,807.5C 1548.83,807.5 1532.17,807.5 1515.5,807.5C 1515.5,790.833 1515.5,774.167 1515.5,757.5 Z"/></g>
<g><path style="opacity:1" fill="#020202" d="M 858.5,757.5 C 858.5,774.167 858.5,790.833 858.5,807.5C 824.833,807.5 791.167,807.5 757.5,807.5C 757.5,790.833 757.5,774.167 757.5,757.5C 791.167,757.5 824.833,757.5 858.5,757.5 Z"/></g>
<g><path style="opacity:1" fill="#020202" d="M 1161.5,807.5 C 1127.83,807.5 1094.17,807.5 1060.5,807.5C 1060.5,790.833 1060.5,774.167 1060.5,757.5C 1094.17,757.5 1127.83,757.5 1161.5,757.5C 1161.5,774.167 1161.5,790.833 1161.5,807.5 Z"/></g>
<g><path style="opacity:1" fill="#747575" d="M 353.5,757.5 C 353.5,774.167 353.5,790.833 353.5,807.5C 353.5,807.833 353.5,808.167 353.5,808.5C 336.5,808.5 319.5,808.5 302.5,808.5C 318.992,807.503 335.658,807.17 352.5,807.5C 352.17,790.658 352.503,773.992 353.5,757.5 Z"/></g>
<g><path style="opacity:1" fill="#957c2f" d="M 1514.5,757.5 C 1514.83,757.5 1515.17,757.5 1515.5,757.5C 1515.5,774.167 1515.5,790.833 1515.5,807.5C 1532.17,807.5 1548.83,807.5 1565.5,807.5C 1565.5,807.833 1565.5,808.167 1565.5,808.5C 1548.5,808.5 1531.5,808.5 1514.5,808.5C 1514.5,791.5 1514.5,774.5 1514.5,757.5 Z"/></g>
<g><path style="opacity:1" fill="#747575" d="M 1565.5,757.5 C 1566.5,773.992 1566.83,790.658 1566.5,807.5C 1583.34,807.17 1600.01,807.503 1616.5,808.5C 1599.5,808.5 1582.5,808.5 1565.5,808.5C 1565.5,808.167 1565.5,807.833 1565.5,807.5C 1565.5,790.833 1565.5,774.167 1565.5,757.5 Z"/></g>
<g><path style="opacity:1" fill="#050403" d="M 302.5,808.5 C 319.5,808.5 336.5,808.5 353.5,808.5C 353.5,825.167 353.5,841.833 353.5,858.5C 353.167,858.5 352.833,858.5 352.5,858.5C 335.833,858.5 319.167,858.5 302.5,858.5C 302.5,841.833 302.5,825.167 302.5,808.5 Z"/></g>
<g><path style="opacity:1" fill="#020202" d="M 757.5,808.5 C 757.5,841.833 757.5,875.167 757.5,908.5C 740.833,908.5 724.167,908.5 707.5,908.5C 707.5,875.167 707.5,841.833 707.5,808.5C 724.167,808.5 740.833,808.5 757.5,808.5 Z"/></g>
<g><path style="opacity:1" fill="#020202" d="M 858.5,808.5 C 875.167,808.5 891.833,808.5 908.5,808.5C 908.5,841.833 908.5,875.167 908.5,908.5C 891.833,908.5 875.167,908.5 858.5,908.5C 858.5,875.167 858.5,841.833 858.5,808.5 Z"/></g>
<g><path style="opacity:1" fill="#020202" d="M 1060.5,808.5 C 1060.5,841.833 1060.5,875.167 1060.5,908.5C 1043.83,908.5 1027.17,908.5 1010.5,908.5C 1010.5,875.167 1010.5,841.833 1010.5,808.5C 1027.17,808.5 1043.83,808.5 1060.5,808.5 Z"/></g>
<g><path style="opacity:1" fill="#020202" d="M 1161.5,808.5 C 1178.17,808.5 1194.83,808.5 1211.5,808.5C 1211.5,841.833 1211.5,875.167 1211.5,908.5C 1194.83,908.5 1178.17,908.5 1161.5,908.5C 1161.5,875.167 1161.5,841.833 1161.5,808.5 Z"/></g>
<g><path style="opacity:1" fill="#040403" d="M 1565.5,808.5 C 1582.5,808.5 1599.5,808.5 1616.5,808.5C 1616.5,825.167 1616.5,841.833 1616.5,858.5C 1599.83,858.5 1583.17,858.5 1566.5,858.5C 1566.17,858.5 1565.83,858.5 1565.5,858.5C 1565.5,841.833 1565.5,825.167 1565.5,808.5 Z"/></g>
<g><path style="opacity:1" fill="#776327" d="M 757.5,808.5 C 757.5,808.167 757.5,807.833 757.5,807.5C 791.167,807.5 824.833,807.5 858.5,807.5C 875.5,807.5 892.5,807.5 909.5,807.5C 909.832,841.337 909.498,875.004 908.5,908.5C 908.5,875.167 908.5,841.833 908.5,808.5C 891.833,808.5 875.167,808.5 858.5,808.5C 824.833,808.5 791.167,808.5 757.5,808.5 Z"/></g>
<g><path style="opacity:1" fill="#776327" d="M 1060.5,807.5 C 1094.17,807.5 1127.83,807.5 1161.5,807.5C 1161.5,807.833 1161.5,808.167 1161.5,808.5C 1127.83,808.5 1094.17,808.5 1060.5,808.5C 1043.83,808.5 1027.17,808.5 1010.5,808.5C 1010.5,841.833 1010.5,875.167 1010.5,908.5C 1009.5,875.004 1009.17,841.337 1009.5,807.5C 1026.5,807.5 1043.5,807.5 1060.5,807.5 Z"/></g>
<g><path style="opacity:1" fill="#594b19" d="M 1161.5,808.5 C 1161.5,808.167 1161.5,807.833 1161.5,807.5C 1178.5,807.5 1195.5,807.5 1212.5,807.5C 1212.5,841.5 1212.5,875.5 1212.5,909.5C 1195.33,909.83 1178.33,909.497 1161.5,908.5C 1178.17,908.5 1194.83,908.5 1211.5,908.5C 1211.5,875.167 1211.5,841.833 1211.5,808.5C 1194.83,808.5 1178.17,808.5 1161.5,808.5 Z"/></g>
<g><path style="opacity:1" fill="#554818" d="M 757.5,807.5 C 757.5,807.833 757.5,808.167 757.5,808.5C 740.833,808.5 724.167,808.5 707.5,808.5C 707.5,841.833 707.5,875.167 707.5,908.5C 724.167,908.5 740.833,908.5 757.5,908.5C 740.675,909.497 723.675,909.83 706.5,909.5C 706.5,875.833 706.5,842.167 706.5,808.5C 723.325,807.503 740.325,807.17 757.5,807.5 Z"/></g>
<g><path style="opacity:1" fill="#020202" d="M 353.5,858.5 C 370.167,858.5 386.833,858.5 403.5,858.5C 403.5,875.167 403.5,891.833 403.5,908.5C 386.833,908.5 370.167,908.5 353.5,908.5C 353.5,891.833 353.5,875.167 353.5,858.5 Z"/></g>
<g><path style="opacity:1" fill="#020202" d="M 1565.5,858.5 C 1565.5,875.167 1565.5,891.833 1565.5,908.5C 1548.83,908.5 1532.17,908.5 1515.5,908.5C 1515.5,891.833 1515.5,875.167 1515.5,858.5C 1532.17,858.5 1548.83,858.5 1565.5,858.5 Z"/></g>
<g><path style="opacity:1" fill="#7e7f81" d="M 352.5,858.5 C 352.833,858.5 353.167,858.5 353.5,858.5C 353.5,875.167 353.5,891.833 353.5,908.5C 370.167,908.5 386.833,908.5 403.5,908.5C 403.5,908.833 403.5,909.167 403.5,909.5C 386.5,909.5 369.5,909.5 352.5,909.5C 352.5,892.5 352.5,875.5 352.5,858.5 Z"/></g>
<g><path style="opacity:1" fill="#7e7f81" d="M 1565.5,858.5 C 1565.83,858.5 1566.17,858.5 1566.5,858.5C 1566.5,875.5 1566.5,892.5 1566.5,909.5C 1549.5,909.5 1532.5,909.5 1515.5,909.5C 1515.5,909.167 1515.5,908.833 1515.5,908.5C 1532.17,908.5 1548.83,908.5 1565.5,908.5C 1565.5,891.833 1565.5,875.167 1565.5,858.5 Z"/></g>
<g><path style="opacity:1" fill="#030303" d="M 403.5,909.5 C 420.167,909.5 436.833,909.5 453.5,909.5C 453.5,926.167 453.5,942.833 453.5,959.5C 453.5,942.833 453.5,926.167 453.5,909.5C 436.833,909.5 420.167,909.5 403.5,909.5 Z"/></g>
<g><path style="opacity:1" fill="#030303" d="M 1515.5,909.5 C 1515.5,926.167 1515.5,942.833 1515.5,959.5C 1498.83,959.5 1482.17,959.5 1465.5,959.5C 1465.5,942.833 1465.5,926.167 1465.5,909.5C 1482.17,909.5 1498.83,909.5 1515.5,909.5 Z"/></g>
<g><path style="opacity:1" fill="#524117" d="M 403.5,909.5 C 403.5,909.167 403.5,908.833 403.5,908.5C 420.5,908.5 437.5,908.5 454.5,908.5C 454.5,925.5 454.5,942.5 454.5,959.5C 454.167,959.5 453.833,959.5 453.5,959.5C 453.5,942.833 453.5,926.167 453.5,909.5C 436.833,909.5 420.167,909.5 403.5,909.5 Z"/></g>
<g><path style="opacity:1" fill="#c29830" d="M 454.5,908.5 C 471.167,908.5 487.833,908.5 504.5,908.5C 504.5,925.5 504.5,942.5 504.5,959.5C 487.833,959.5 471.167,959.5 454.5,959.5C 454.5,942.5 454.5,925.5 454.5,908.5 Z"/></g>
<g><path style="opacity:1" fill="#4b3d15" d="M 1515.5,908.5 C 1515.5,908.833 1515.5,909.167 1515.5,909.5C 1498.83,909.5 1482.17,909.5 1465.5,909.5C 1465.5,926.167 1465.5,942.833 1465.5,959.5C 1465.17,959.5 1464.83,959.5 1464.5,959.5C 1464.5,942.5 1464.5,925.5 1464.5,908.5C 1481.5,908.5 1498.5,908.5 1515.5,908.5 Z"/></g>
<g><path style="opacity:1" fill="#020202" d="M 454.5,959.5 C 471.167,959.5 487.833,959.5 504.5,959.5C 504.5,976.167 504.5,992.833 504.5,1009.5C 487.833,1009.5 471.167,1009.5 454.5,1009.5C 454.5,992.833 454.5,976.167 454.5,959.5 Z"/></g>
<g><path style="opacity:1" fill="#020202" d="M 1464.5,959.5 C 1464.5,976.167 1464.5,992.833 1464.5,1009.5C 1447.83,1009.5 1431.17,1009.5 1414.5,1009.5C 1414.5,992.833 1414.5,976.167 1414.5,959.5C 1431.17,959.5 1447.83,959.5 1464.5,959.5 Z"/></g>
<g><path style="opacity:1" fill="#737375" d="M 453.5,959.5 C 453.833,959.5 454.167,959.5 454.5,959.5C 454.5,976.167 454.5,992.833 454.5,1009.5C 471.167,1009.5 487.833,1009.5 504.5,1009.5C 504.5,1009.83 504.5,1010.17 504.5,1010.5C 487.5,1010.5 470.5,1010.5 453.5,1010.5C 453.5,993.5 453.5,976.5 453.5,959.5 Z"/></g>
<g><path style="opacity:1" fill="#836925" d="M 504.5,959.5 C 504.833,959.5 505.167,959.5 505.5,959.5C 505.5,976.167 505.5,992.833 505.5,1009.5C 522.342,1009.17 539.008,1009.5 555.5,1010.5C 538.5,1010.5 521.5,1010.5 504.5,1010.5C 504.5,1010.17 504.5,1009.83 504.5,1009.5C 504.5,992.833 504.5,976.167 504.5,959.5 Z"/></g>
<g><path style="opacity:1" fill="#737375" d="M 1464.5,959.5 C 1464.83,959.5 1465.17,959.5 1465.5,959.5C 1465.5,976.5 1465.5,993.5 1465.5,1010.5C 1448.5,1010.5 1431.5,1010.5 1414.5,1010.5C 1414.5,1010.17 1414.5,1009.83 1414.5,1009.5C 1431.17,1009.5 1447.83,1009.5 1464.5,1009.5C 1464.5,992.833 1464.5,976.167 1464.5,959.5 Z"/></g>
<g><path style="opacity:1" fill="#050504" d="M 504.5,1010.5 C 521.5,1010.5 538.5,1010.5 555.5,1010.5C 555.5,1027.17 555.5,1043.83 555.5,1060.5C 538.5,1060.5 521.5,1060.5 504.5,1060.5C 504.5,1043.83 504.5,1027.17 504.5,1010.5 Z"/></g>
<g><path style="opacity:1" fill="#020202" d="M 807.5,1010.5 C 807.5,1027.17 807.5,1043.83 807.5,1060.5C 790.833,1060.5 774.167,1060.5 757.5,1060.5C 757.5,1043.83 757.5,1027.17 757.5,1010.5C 774.167,1010.5 790.833,1010.5 807.5,1010.5 Z"/></g>
<g><path style="opacity:1" fill="#020202" d="M 1161.5,1010.5 C 1161.5,1027.17 1161.5,1043.83 1161.5,1060.5C 1144.83,1060.5 1128.17,1060.5 1111.5,1060.5C 1111.5,1043.83 1111.5,1027.17 1111.5,1010.5C 1128.17,1010.5 1144.83,1010.5 1161.5,1010.5 Z"/></g>
<g><path style="opacity:1" fill="#030303" d="M 1414.5,1010.5 C 1414.5,1027.17 1414.5,1043.83 1414.5,1060.5C 1397.83,1060.5 1381.17,1060.5 1364.5,1060.5C 1364.5,1043.83 1364.5,1027.17 1364.5,1010.5C 1381.17,1010.5 1397.83,1010.5 1414.5,1010.5 Z"/></g>
<g><path style="opacity:1" fill="#c29930" d="M 505.5,959.5 C 522.167,959.5 538.833,959.5 555.5,959.5C 555.5,975.833 555.5,992.167 555.5,1008.5C 572.139,1009.44 588.805,1009.77 605.5,1009.5C 605.5,1026.5 605.5,1043.5 605.5,1060.5C 588.833,1060.5 572.167,1060.5 555.5,1060.5C 555.5,1043.83 555.5,1027.17 555.5,1010.5C 539.008,1009.5 522.342,1009.17 505.5,1009.5C 505.5,992.833 505.5,976.167 505.5,959.5 Z"/></g>
<g><path style="opacity:1" fill="#836a23" d="M 1161.5,1010.5 C 1144.83,1010.5 1128.17,1010.5 1111.5,1010.5C 1111.5,1027.17 1111.5,1043.83 1111.5,1060.5C 1111.17,1060.5 1110.83,1060.5 1110.5,1060.5C 1110.5,1043.5 1110.5,1026.5 1110.5,1009.5C 1127.67,1009.17 1144.67,1009.5 1161.5,1010.5 Z"/></g>
<g><path style="opacity:1" fill="#433917" d="M 1414.5,1009.5 C 1414.5,1009.83 1414.5,1010.17 1414.5,1010.5C 1397.83,1010.5 1381.17,1010.5 1364.5,1010.5C 1364.5,1027.17 1364.5,1043.83 1364.5,1060.5C 1364.17,1060.5 1363.83,1060.5 1363.5,1060.5C 1363.5,1043.5 1363.5,1026.5 1363.5,1009.5C 1380.5,1009.5 1397.5,1009.5 1414.5,1009.5 Z"/></g>
<g><path style="opacity:1" fill="#020202" d="M 555.5,1060.5 C 572.167,1060.5 588.833,1060.5 605.5,1060.5C 605.5,1127.83 605.5,1195.17 605.5,1262.5C 588.833,1262.5 572.167,1262.5 555.5,1262.5C 555.5,1195.17 555.5,1127.83 555.5,1060.5 Z"/></g>
<g><path style="opacity:1" fill="#020202" d="M 808.5,1060.5 C 825.167,1060.5 841.833,1060.5 858.5,1060.5C 858.5,1077.17 858.5,1093.83 858.5,1110.5C 858.5,1093.83 858.5,1077.17 858.5,1060.5C 841.833,1060.5 825.167,1060.5 808.5,1060.5 Z"/></g>
<g><path style="opacity:1" fill="#020202" d="M 1110.5,1060.5 C 1110.5,1077.17 1110.5,1093.83 1110.5,1110.5C 1093.83,1110.5 1077.17,1110.5 1060.5,1110.5C 1060.5,1093.83 1060.5,1077.17 1060.5,1060.5C 1077.17,1060.5 1093.83,1060.5 1110.5,1060.5 Z"/></g>
<g><path style="opacity:1" fill="#020202" d="M 1363.5,1060.5 C 1363.5,1127.83 1363.5,1195.17 1363.5,1262.5C 1346.83,1262.5 1330.17,1262.5 1313.5,1262.5C 1313.5,1195.17 1313.5,1127.83 1313.5,1060.5C 1330.17,1060.5 1346.83,1060.5 1363.5,1060.5 Z"/></g>
<g><path style="opacity:1" fill="#c19830" d="M 605.5,1060.5 C 622.5,1060.5 639.5,1060.5 656.5,1060.5C 656.5,1077.5 656.5,1094.5 656.5,1111.5C 673.167,1111.5 689.833,1111.5 706.5,1111.5C 706.5,1161.83 706.5,1212.17 706.5,1262.5C 689.497,1262.33 672.497,1262.5 655.5,1263C 656.496,1296.43 656.829,1329.93 656.5,1363.5C 639.5,1363.5 622.5,1363.5 605.5,1363.5C 605.5,1380.5 605.5,1397.5 605.5,1414.5C 588.833,1414.5 572.167,1414.5 555.5,1414.5C 555.5,1431.17 555.5,1447.83 555.5,1464.5C 538.5,1464.5 521.5,1464.5 504.5,1464.5C 504.5,1481.5 504.5,1498.5 504.5,1515.5C 487.833,1515.5 471.167,1515.5 454.5,1515.5C 454.5,1481.83 454.5,1448.17 454.5,1414.5C 471.167,1414.5 487.833,1414.5 504.5,1414.5C 505.497,1398.01 505.83,1381.34 505.5,1364.5C 522.342,1364.83 539.008,1364.5 555.5,1363.5C 555.5,1329.83 555.5,1296.17 555.5,1262.5C 572.167,1262.5 588.833,1262.5 605.5,1262.5C 605.5,1195.17 605.5,1127.83 605.5,1060.5 Z"/></g>
<g><path style="opacity:1" fill="#756026" d="M 807.5,1010.5 C 808.497,1026.99 808.83,1043.66 808.5,1060.5C 808.5,1077.17 808.5,1093.83 808.5,1110.5C 825.167,1110.5 841.833,1110.5 858.5,1110.5C 925.833,1110.5 993.167,1110.5 1060.5,1110.5C 1060.5,1110.83 1060.5,1111.17 1060.5,1111.5C 993.167,1111.5 925.833,1111.5 858.5,1111.5C 841.5,1111.5 824.5,1111.5 807.5,1111.5C 807.5,1094.5 807.5,1077.5 807.5,1060.5C 807.5,1043.83 807.5,1027.17 807.5,1010.5 Z"/></g>
<g><path style="opacity:1" fill="#afafaf" d="M 1363.5,1060.5 C 1363.83,1060.5 1364.17,1060.5 1364.5,1060.5C 1381.17,1060.5 1397.83,1060.5 1414.5,1060.5C 1398.01,1061.5 1381.34,1061.83 1364.5,1061.5C 1364.5,1128.5 1364.5,1195.5 1364.5,1262.5C 1364.17,1262.5 1363.83,1262.5 1363.5,1262.5C 1363.5,1195.17 1363.5,1127.83 1363.5,1060.5 Z"/></g>
<g><path style="opacity:1" fill="#5e4d20" d="M 1110.5,1060.5 C 1110.83,1060.5 1111.17,1060.5 1111.5,1060.5C 1111.5,1077.5 1111.5,1094.5 1111.5,1111.5C 1094.5,1111.5 1077.5,1111.5 1060.5,1111.5C 1060.5,1111.17 1060.5,1110.83 1060.5,1110.5C 1077.17,1110.5 1093.83,1110.5 1110.5,1110.5C 1110.5,1093.83 1110.5,1077.17 1110.5,1060.5 Z"/></g>
<g><path style="opacity:1" fill="#020202" d="M 858.5,1111.5 C 925.833,1111.5 993.167,1111.5 1060.5,1111.5C 1060.5,1128.17 1060.5,1144.83 1060.5,1161.5C 993.167,1161.5 925.833,1161.5 858.5,1161.5C 858.5,1144.83 858.5,1128.17 858.5,1111.5 Z"/></g>
<g><path style="opacity:1" fill="#060504" d="M 555.5,1262.5 C 555.5,1296.17 555.5,1329.83 555.5,1363.5C 538.5,1363.5 521.5,1363.5 504.5,1363.5C 504.5,1329.83 504.5,1296.17 504.5,1262.5C 521.5,1262.5 538.5,1262.5 555.5,1262.5 Z"/></g>
<g><path style="opacity:1" fill="#2a2822" d="M 1363.5,1262.5 C 1363.83,1262.5 1364.17,1262.5 1364.5,1262.5C 1381.17,1262.5 1397.83,1262.5 1414.5,1262.5C 1414.5,1296.17 1414.5,1329.83 1414.5,1363.5C 1414.17,1363.5 1413.83,1363.5 1413.5,1363.5C 1413.5,1330.17 1413.5,1296.83 1413.5,1263.5C 1397.17,1263.5 1380.83,1263.5 1364.5,1263.5C 1364.5,1296.83 1364.5,1330.17 1364.5,1363.5C 1364.17,1363.5 1363.83,1363.5 1363.5,1363.5C 1363.5,1329.83 1363.5,1296.17 1363.5,1262.5 Z"/></g>
<g><path style="opacity:1" fill="#020202" d="M 1413.5,1363.5 C 1397.17,1363.5 1380.83,1363.5 1364.5,1363.5C 1364.5,1330.17 1364.5,1296.83 1364.5,1263.5C 1380.83,1263.5 1397.17,1263.5 1413.5,1263.5C 1413.5,1296.83 1413.5,1330.17 1413.5,1363.5 Z"/></g>
<g><path style="opacity:1" fill="#050403" d="M 454.5,1363.5 C 471.167,1363.5 487.833,1363.5 504.5,1363.5C 504.5,1380.5 504.5,1397.5 504.5,1414.5C 487.833,1414.5 471.167,1414.5 454.5,1414.5C 454.5,1397.5 454.5,1380.5 454.5,1363.5 Z"/></g>
<g><path style="opacity:1" fill="#050403" d="M 1414.5,1363.5 C 1431.17,1363.5 1447.83,1363.5 1464.5,1363.5C 1464.5,1380.5 1464.5,1397.5 1464.5,1414.5C 1447.83,1414.5 1431.17,1414.5 1414.5,1414.5C 1414.5,1397.5 1414.5,1380.5 1414.5,1363.5 Z"/></g>
<g><path style="opacity:1" fill="#050404" d="M 909.5,1363.5 C 942.833,1363.5 976.167,1363.5 1009.5,1363.5C 1009.5,1380.5 1009.5,1397.5 1009.5,1414.5C 976.167,1414.5 942.833,1414.5 909.5,1414.5C 909.5,1397.5 909.5,1380.5 909.5,1363.5 Z"/></g>
<g><path style="opacity:1" fill="#98782a" d="M 504.5,1363.5 C 521.5,1363.5 538.5,1363.5 555.5,1363.5C 539.008,1364.5 522.342,1364.83 505.5,1364.5C 505.83,1381.34 505.497,1398.01 504.5,1414.5C 504.5,1397.5 504.5,1380.5 504.5,1363.5 Z"/></g>
<g><path style="opacity:1" fill="#b08e31" d="M 1363.5,1363.5 C 1363.83,1363.5 1364.17,1363.5 1364.5,1363.5C 1380.83,1363.5 1397.17,1363.5 1413.5,1363.5C 1413.83,1363.5 1414.17,1363.5 1414.5,1363.5C 1414.5,1380.5 1414.5,1397.5 1414.5,1414.5C 1413.5,1398.01 1413.17,1381.34 1413.5,1364.5C 1396.66,1364.83 1379.99,1364.5 1363.5,1363.5 Z"/></g>
<g><path style="opacity:1" fill="#979899" d="M 454.5,1363.5 C 454.5,1380.5 454.5,1397.5 454.5,1414.5C 437.833,1414.5 421.167,1414.5 404.5,1414.5C 404.167,1414.5 403.833,1414.5 403.5,1414.5C 419.992,1413.5 436.658,1413.17 453.5,1413.5C 453.17,1396.66 453.503,1379.99 454.5,1363.5 Z"/></g>
<g><path style="opacity:1" fill="#927427" d="M 909.5,1363.5 C 909.5,1380.5 909.5,1397.5 909.5,1414.5C 909.167,1414.5 908.833,1414.5 908.5,1414.5C 858.167,1414.5 807.833,1414.5 757.5,1414.5C 807.664,1413.5 857.997,1413.17 908.5,1413.5C 908.17,1396.66 908.503,1379.99 909.5,1363.5 Z"/></g>
<g><path style="opacity:1" fill="#927427" d="M 1009.5,1363.5 C 1010.5,1379.99 1010.83,1396.66 1010.5,1413.5C 1061,1413.17 1111.34,1413.5 1161.5,1414.5C 1111.17,1414.5 1060.83,1414.5 1010.5,1414.5C 1010.17,1414.5 1009.83,1414.5 1009.5,1414.5C 1009.5,1397.5 1009.5,1380.5 1009.5,1363.5 Z"/></g>
<g><path style="opacity:1" fill="#979899" d="M 1464.5,1363.5 C 1465.5,1379.99 1465.83,1396.66 1465.5,1413.5C 1482.34,1413.17 1499.01,1413.5 1515.5,1414.5C 1515.17,1414.5 1514.83,1414.5 1514.5,1414.5C 1497.83,1414.5 1481.17,1414.5 1464.5,1414.5C 1464.5,1397.5 1464.5,1380.5 1464.5,1363.5 Z"/></g>
<g><path style="opacity:1" fill="#020202" d="M 404.5,1414.5 C 421.167,1414.5 437.833,1414.5 454.5,1414.5C 454.5,1448.17 454.5,1481.83 454.5,1515.5C 454.5,1532.17 454.5,1548.83 454.5,1565.5C 521.331,1566.5 588.331,1566.83 655.5,1566.5C 655.5,1582.83 655.5,1599.17 655.5,1615.5C 571.833,1615.5 488.167,1615.5 404.5,1615.5C 404.5,1548.5 404.5,1481.5 404.5,1414.5 Z"/></g>
<g><path style="opacity:1" fill="#020202" d="M 757.5,1414.5 C 807.833,1414.5 858.167,1414.5 908.5,1414.5C 908.5,1431.17 908.5,1447.83 908.5,1464.5C 874.833,1464.5 841.167,1464.5 807.5,1464.5C 807.5,1481.5 807.5,1498.5 807.5,1515.5C 790.833,1515.5 774.167,1515.5 757.5,1515.5C 757.5,1481.83 757.5,1448.17 757.5,1414.5 Z"/></g>
<g><path style="opacity:1" fill="#020202" d="M 1010.5,1414.5 C 1060.83,1414.5 1111.17,1414.5 1161.5,1414.5C 1161.5,1448.17 1161.5,1481.83 1161.5,1515.5C 1144.83,1515.5 1128.17,1515.5 1111.5,1515.5C 1111.5,1498.5 1111.5,1481.5 1111.5,1464.5C 1077.83,1464.5 1044.17,1464.5 1010.5,1464.5C 1010.5,1447.83 1010.5,1431.17 1010.5,1414.5 Z"/></g>
<g><path style="opacity:1" fill="#020202" d="M 1464.5,1414.5 C 1481.17,1414.5 1497.83,1414.5 1514.5,1414.5C 1514.5,1481.5 1514.5,1548.5 1514.5,1615.5C 1430.83,1615.5 1347.17,1615.5 1263.5,1615.5C 1263.5,1599.17 1263.5,1582.83 1263.5,1566.5C 1330.67,1566.83 1397.67,1566.5 1464.5,1565.5C 1464.5,1515.17 1464.5,1464.83 1464.5,1414.5 Z"/></g>
<g><path style="opacity:1" fill="#878889" d="M 908.5,1414.5 C 908.833,1414.5 909.167,1414.5 909.5,1414.5C 909.5,1431.5 909.5,1448.5 909.5,1465.5C 875.833,1465.5 842.167,1465.5 808.5,1465.5C 808.83,1482.34 808.497,1499.01 807.5,1515.5C 807.5,1498.5 807.5,1481.5 807.5,1464.5C 841.167,1464.5 874.833,1464.5 908.5,1464.5C 908.5,1447.83 908.5,1431.17 908.5,1414.5 Z"/></g>
<g><path style="opacity:1" fill="#8c8d8e" d="M 1009.5,1414.5 C 1009.83,1414.5 1010.17,1414.5 1010.5,1414.5C 1010.5,1431.17 1010.5,1447.83 1010.5,1464.5C 1044.17,1464.5 1077.83,1464.5 1111.5,1464.5C 1111.5,1481.5 1111.5,1498.5 1111.5,1515.5C 1110.5,1499.01 1110.17,1482.34 1110.5,1465.5C 1076.83,1465.5 1043.17,1465.5 1009.5,1465.5C 1009.5,1448.5 1009.5,1431.5 1009.5,1414.5 Z"/></g>
<g><path style="opacity:1" fill="#b19032" d="M 757.5,1414.5 C 757.5,1448.17 757.5,1481.83 757.5,1515.5C 723.833,1515.5 690.167,1515.5 656.5,1515.5C 689.662,1514.5 722.996,1514.17 756.5,1514.5C 756.168,1481 756.502,1447.66 757.5,1414.5 Z"/></g>
<g><path style="opacity:1" fill="#b19032" d="M 1161.5,1414.5 C 1162.5,1447.66 1162.83,1481 1162.5,1514.5C 1196,1514.17 1229.34,1514.5 1262.5,1515.5C 1228.83,1515.5 1195.17,1515.5 1161.5,1515.5C 1161.5,1481.83 1161.5,1448.17 1161.5,1414.5 Z"/></g>
<g><path style="opacity:1" fill="#020202" d="M 656.5,1515.5 C 690.167,1515.5 723.833,1515.5 757.5,1515.5C 757.5,1532.17 757.5,1548.83 757.5,1565.5C 723.833,1565.5 690.167,1565.5 656.5,1565.5C 656.5,1548.83 656.5,1532.17 656.5,1515.5 Z"/></g>
<g><path style="opacity:1" fill="#020202" d="M 1161.5,1515.5 C 1195.17,1515.5 1228.83,1515.5 1262.5,1515.5C 1262.5,1532.17 1262.5,1548.83 1262.5,1565.5C 1228.83,1565.5 1195.17,1565.5 1161.5,1565.5C 1161.5,1548.83 1161.5,1532.17 1161.5,1515.5 Z"/></g>
<g><path style="opacity:1" fill="#292620" d="M 403.5,1414.5 C 403.833,1414.5 404.167,1414.5 404.5,1414.5C 404.5,1481.5 404.5,1548.5 404.5,1615.5C 488.167,1615.5 571.833,1615.5 655.5,1615.5C 655.5,1599.17 655.5,1582.83 655.5,1566.5C 588.331,1566.83 521.331,1566.5 454.5,1565.5C 521.833,1565.5 589.167,1565.5 656.5,1565.5C 656.5,1582.5 656.5,1599.5 656.5,1616.5C 572.167,1616.5 487.833,1616.5 403.5,1616.5C 403.5,1549.17 403.5,1481.83 403.5,1414.5 Z"/></g>
<g><path style="opacity:1" fill="#2b2721" d="M 1514.5,1414.5 C 1514.83,1414.5 1515.17,1414.5 1515.5,1414.5C 1515.5,1481.83 1515.5,1549.17 1515.5,1616.5C 1431.17,1616.5 1346.83,1616.5 1262.5,1616.5C 1262.5,1599.5 1262.5,1582.5 1262.5,1565.5C 1329.83,1565.5 1397.17,1565.5 1464.5,1565.5C 1397.67,1566.5 1330.67,1566.83 1263.5,1566.5C 1263.5,1582.83 1263.5,1599.17 1263.5,1615.5C 1347.17,1615.5 1430.83,1615.5 1514.5,1615.5C 1514.5,1548.5 1514.5,1481.5 1514.5,1414.5 Z"/></g>

</svg>
