<?xml version="1.0" encoding="UTF-8"?>
<!DOCTYPE svg PUBLIC "-//W3C//DTD SVG 1.1//EN" "http://www.w3.org/Graphics/SVG/1.1/DTD/svg11.dtd">
<svg xmlns="http://www.w3.org/2000/svg" version="1.1" width="3500px" height="4000px" style="shape-rendering:geometricPrecision; text-rendering:geometricPrecision; image-rendering:optimizeQuality; fill-rule:evenodd; clip-rule:evenodd" xmlns:xlink="http://www.w3.org/1999/xlink">
<g><path style="opacity:1" fill="none" d="M -0.5,-0.5 C 1166.17,-0.5 2332.83,-0.5 3499.5,-0.5C 3499.5,1332.83 3499.5,2666.17 3499.5,3999.5C 2332.83,3999.5 1166.17,3999.5 -0.5,3999.5C -0.5,2666.17 -0.5,1332.83 -0.5,-0.5 Z"/></g>
<g><path style="opacity:1" fill="#000000" d="M 2593.5,870.5 C 2593.5,858.5 2593.5,846.5 2593.5,834.5C 2616.17,834.667 2638.84,834.5 2661.5,834C 2651.17,833.5 2640.84,833.334 2630.5,833.5C 2630.83,821.322 2630.5,809.322 2629.5,797.5C 2556.5,797.5 2483.5,797.5 2410.5,797.5C 2410.5,785.167 2410.5,772.833 2410.5,760.5C 2324.83,760.5 2239.17,760.5 2153.5,760.5C 2153.5,748.5 2153.5,736.5 2153.5,724.5C 2104.5,724.5 2055.5,724.5 2006.5,724.5C 2006.5,700.167 2006.5,675.833 2006.5,651.5C 1994.17,651.5 1981.83,651.5 1969.5,651.5C 1969.5,627.167 1969.5,602.833 1969.5,578.5C 1957.5,578.5 1945.5,578.5 1933.5,578.5C 1933.5,554.167 1933.5,529.833 1933.5,505.5C 1921.17,505.5 1908.83,505.5 1896.5,505.5C 1896.5,481.167 1896.5,456.833 1896.5,432.5C 1884.17,432.5 1871.83,432.5 1859.5,432.5C 1859.5,408.167 1859.5,383.833 1859.5,359.5C 1847.5,359.5 1835.5,359.5 1823.5,359.5C 1823.5,335.167 1823.5,310.833 1823.5,286.5C 1811.17,286.5 1798.83,286.5 1786.5,286.5C 1786.5,262.167 1786.5,237.833 1786.5,213.5C 1761.83,213.5 1737.17,213.5 1712.5,213.5C 1712.5,237.833 1712.5,262.167 1712.5,286.5C 1700.17,286.5 1687.83,286.5 1675.5,286.5C 1675.5,310.833 1675.5,335.167 1675.5,359.5C 1663.5,359.5 1651.5,359.5 1639.5,359.5C 1639.5,383.833 1639.5,408.167 1639.5,432.5C 1627.17,432.5 1614.83,432.5 1602.5,432.5C 1602.5,456.833 1602.5,481.167 1602.5,505.5C 1590.17,505.5 1577.83,505.5 1565.5,505.5C 1565.5,529.833 1565.5,554.167 1565.5,578.5C 1553.5,578.5 1541.5,578.5 1529.5,578.5C 1528.5,590.322 1528.17,602.322 1528.5,614.5C 1495.17,614.833 1495.17,615.167 1528.5,615.5C 1528.5,627.5 1528.5,639.5 1528.5,651.5C 1516.5,651.5 1504.5,651.5 1492.5,651.5C 1492.5,675.833 1492.5,700.167 1492.5,724.5C 1443.83,724.5 1395.17,724.5 1346.5,724.5C 1345.5,736.322 1345.17,748.322 1345.5,760.5C 1259.83,760.5 1174.17,760.5 1088.5,760.5C 1088.5,772.833 1088.5,785.167 1088.5,797.5C 1015.5,797.5 942.5,797.5 869.5,797.5C 868.505,809.655 868.171,821.989 868.5,834.5C 880.833,834.5 893.167,834.5 905.5,834.5C 905.5,846.5 905.5,858.5 905.5,870.5C 880.833,870.5 856.167,870.5 831.5,870.5C 831.5,833.833 831.5,797.167 831.5,760.5C 904.833,760.5 978.167,760.5 1051.5,760.5C 1051.5,748.5 1051.5,736.5 1051.5,724.5C 1137.17,724.5 1222.83,724.5 1308.5,724.5C 1308.5,712.167 1308.5,699.833 1308.5,687.5C 1357.5,687.5 1406.5,687.5 1455.5,687.5C 1455.5,663.167 1455.5,638.833 1455.5,614.5C 1467.83,614.5 1480.17,614.5 1492.5,614.5C 1492.5,590.167 1492.5,565.833 1492.5,541.5C 1504.5,541.5 1516.5,541.5 1528.5,541.5C 1528.5,517.167 1528.5,492.833 1528.5,468.5C 1540.83,468.5 1553.17,468.5 1565.5,468.5C 1565.5,444.167 1565.5,419.833 1565.5,395.5C 1577.83,395.5 1590.17,395.5 1602.5,395.5C 1602.5,371.167 1602.5,346.833 1602.5,322.5C 1614.5,322.5 1626.5,322.5 1638.5,322.5C 1638.5,298.5 1638.5,274.5 1638.5,250.5C 1650.83,250.5 1663.17,250.5 1675.5,250.5C 1675.5,226.167 1675.5,201.833 1675.5,177.5C 1687.83,177.5 1700.17,177.5 1712.5,177.5C 1712.5,165.167 1712.5,152.833 1712.5,140.5C 1737.17,140.5 1761.83,140.5 1786.5,140.5C 1786.5,152.833 1786.5,165.167 1786.5,177.5C 1798.83,177.5 1811.17,177.5 1823.5,177.5C 1823.5,201.833 1823.5,226.167 1823.5,250.5C 1835.83,250.5 1848.17,250.5 1860.5,250.5C 1860.5,274.5 1860.5,298.5 1860.5,322.5C 1872.5,322.5 1884.5,322.5 1896.5,322.5C 1896.5,346.833 1896.5,371.167 1896.5,395.5C 1908.83,395.5 1921.17,395.5 1933.5,395.5C 1933.5,419.833 1933.5,444.167 1933.5,468.5C 1945.83,468.5 1958.17,468.5 1970.5,468.5C 1970.5,492.833 1970.5,517.167 1970.5,541.5C 1982.5,541.5 1994.5,541.5 2006.5,541.5C 2006.5,565.833 2006.5,590.167 2006.5,614.5C 2018.83,614.5 2031.17,614.5 2043.5,614.5C 2043.5,638.833 2043.5,663.167 2043.5,687.5C 2092.5,687.5 2141.5,687.5 2190.5,687.5C 2190.5,699.833 2190.5,712.167 2190.5,724.5C 2276.17,724.5 2361.83,724.5 2447.5,724.5C 2447.5,736.5 2447.5,748.5 2447.5,760.5C 2520.83,760.5 2594.17,760.5 2667.5,760.5C 2667.5,797.167 2667.5,833.833 2667.5,870.5C 2642.83,870.5 2618.17,870.5 2593.5,870.5 Z"/></g>
<g><path style="opacity:1" fill="#fce789" d="M 1786.5,286.5 C 1761.83,286.5 1737.17,286.5 1712.5,286.5C 1712.5,262.167 1712.5,237.833 1712.5,213.5C 1737.17,213.5 1761.83,213.5 1786.5,213.5C 1786.5,237.833 1786.5,262.167 1786.5,286.5 Z"/></g>
<g><path style="opacity:1" fill="#fdd631" d="M 1786.5,432.5 C 1798.32,433.495 1810.32,433.828 1822.5,433.5C 1822.5,457.833 1822.5,482.167 1822.5,506.5C 1834.83,506.5 1847.17,506.5 1859.5,506.5C 1859.5,530.5 1859.5,554.5 1859.5,578.5C 1871.68,578.172 1883.68,578.505 1895.5,579.5C 1895.33,639.834 1895.5,700.168 1896,760.5C 1944.76,761.497 1993.59,761.831 2042.5,761.5C 2042.17,773.678 2042.5,785.678 2043.5,797.5C 2104.5,797.5 2165.5,797.5 2226.5,797.5C 2226.5,809.5 2226.5,821.5 2226.5,833.5C 2250.66,834.498 2274.99,834.831 2299.5,834.5C 2299.17,846.678 2299.5,858.678 2300.5,870.5C 2361.5,870.5 2422.5,870.5 2483.5,870.5C 2483.5,858.167 2483.5,845.833 2483.5,833.5C 2458.83,833.5 2434.17,833.5 2409.5,833.5C 2409.5,821.5 2409.5,809.5 2409.5,797.5C 2409.83,797.5 2410.17,797.5 2410.5,797.5C 2483.5,797.5 2556.5,797.5 2629.5,797.5C 2629.5,809.5 2629.5,821.5 2629.5,833.5C 2617.5,833.5 2605.5,833.5 2593.5,833.5C 2592.5,845.322 2592.17,857.322 2592.5,869.5C 2580.32,869.172 2568.32,869.505 2556.5,870.5C 2556.5,882.5 2556.5,894.5 2556.5,906.5C 2544.17,906.5 2531.83,906.5 2519.5,906.5C 2519.5,918.833 2519.5,931.167 2519.5,943.5C 2507.5,943.5 2495.5,943.5 2483.5,943.5C 2483.5,955.5 2483.5,967.5 2483.5,979.5C 2471.17,979.5 2458.83,979.5 2446.5,979.5C 2446.5,991.5 2446.5,1003.5 2446.5,1015.5C 2434.17,1015.5 2421.83,1015.5 2409.5,1015.5C 2409.5,1027.83 2409.5,1040.17 2409.5,1052.5C 2397.5,1052.5 2385.5,1052.5 2373.5,1052.5C 2373.5,1064.83 2373.5,1077.17 2373.5,1089.5C 2361.17,1089.5 2348.83,1089.5 2336.5,1089.5C 2336.5,1101.5 2336.5,1113.5 2336.5,1125.5C 2324.5,1125.5 2312.5,1125.5 2300.5,1125.5C 2299.5,1137.32 2299.17,1149.32 2299.5,1161.5C 2287.32,1161.17 2275.32,1161.5 2263.5,1162.5C 2263.5,1174.5 2263.5,1186.5 2263.5,1198.5C 2251.17,1198.5 2238.83,1198.5 2226.5,1198.5C 2226.5,1210.5 2226.5,1222.5 2226.5,1234.5C 2214.17,1234.5 2201.83,1234.5 2189.5,1234.5C 2189.5,1259.17 2189.5,1283.83 2189.5,1308.5C 2201.83,1308.5 2214.17,1308.5 2226.5,1308.5C 2226.5,1381.17 2226.5,1453.83 2226.5,1526.5C 2238.5,1526.5 2250.5,1526.5 2262.5,1526.5C 2262.5,1596.83 2262.5,1667.17 2262.5,1737.5C 2177.17,1737.5 2091.83,1737.5 2006.5,1737.5C 2006.5,1728.17 2006.5,1718.83 2006.5,1709.5C 1994.17,1709.5 1981.83,1709.5 1969.5,1709.5C 1969.5,1697.17 1969.5,1684.83 1969.5,1672.5C 1945.17,1672.5 1920.83,1672.5 1896.5,1672.5C 1896.5,1660.5 1896.5,1648.5 1896.5,1636.5C 1872.34,1635.5 1848.01,1635.17 1823.5,1635.5C 1823.83,1623.32 1823.5,1611.32 1822.5,1599.5C 1773.83,1599.5 1725.17,1599.5 1676.5,1599.5C 1675.5,1611.32 1675.17,1623.32 1675.5,1635.5C 1650.99,1635.17 1626.66,1635.5 1602.5,1636.5C 1602.5,1648.5 1602.5,1660.5 1602.5,1672.5C 1578.17,1672.5 1553.83,1672.5 1529.5,1672.5C 1529.5,1684.5 1529.5,1696.5 1529.5,1708.5C 1504.83,1708.5 1480.17,1708.5 1455.5,1708.5C 1455.5,1718.17 1455.5,1727.83 1455.5,1737.5C 1382.5,1737.5 1309.5,1737.5 1236.5,1737.5C 1236.5,1667.17 1236.5,1596.83 1236.5,1526.5C 1248.5,1526.5 1260.5,1526.5 1272.5,1526.5C 1272.5,1453.83 1272.5,1381.17 1272.5,1308.5C 1284.83,1308.5 1297.17,1308.5 1309.5,1308.5C 1309.5,1283.83 1309.5,1259.17 1309.5,1234.5C 1297.17,1234.5 1284.83,1234.5 1272.5,1234.5C 1272.5,1222.5 1272.5,1210.5 1272.5,1198.5C 1260.17,1198.5 1247.83,1198.5 1235.5,1198.5C 1235.5,1186.5 1235.5,1174.5 1235.5,1162.5C 1223.68,1161.5 1211.68,1161.17 1199.5,1161.5C 1199.83,1149.32 1199.5,1137.32 1198.5,1125.5C 1186.5,1125.5 1174.5,1125.5 1162.5,1125.5C 1162.5,1113.5 1162.5,1101.5 1162.5,1089.5C 1150.17,1089.5 1137.83,1089.5 1125.5,1089.5C 1125.5,1077.17 1125.5,1064.83 1125.5,1052.5C 1113.5,1052.5 1101.5,1052.5 1089.5,1052.5C 1089.5,1040.17 1089.5,1027.83 1089.5,1015.5C 1077.17,1015.5 1064.83,1015.5 1052.5,1015.5C 1052.5,1003.83 1052.5,992.167 1052.5,980.5C 1040.34,979.505 1028.01,979.171 1015.5,979.5C 1015.5,967.5 1015.5,955.5 1015.5,943.5C 1003.5,943.5 991.5,943.5 979.5,943.5C 979.5,931.167 979.5,918.833 979.5,906.5C 967.167,906.5 954.833,906.5 942.5,906.5C 942.5,894.5 942.5,882.5 942.5,870.5C 930.678,869.505 918.678,869.172 906.5,869.5C 906.5,857.5 906.5,845.5 906.5,833.5C 1052.83,833.5 1199.17,833.5 1345.5,833.5C 1345.5,821.5 1345.5,809.5 1345.5,797.5C 1406.83,797.5 1468.17,797.5 1529.5,797.5C 1529.5,773.167 1529.5,748.833 1529.5,724.5C 1541.83,724.5 1554.17,724.5 1566.5,724.5C 1566.5,700.167 1566.5,675.833 1566.5,651.5C 1578.5,651.5 1590.5,651.5 1602.5,651.5C 1602.5,627.167 1602.5,602.833 1602.5,578.5C 1614.83,578.5 1627.17,578.5 1639.5,578.5C 1639.5,554.5 1639.5,530.5 1639.5,506.5C 1651.83,506.5 1664.17,506.5 1676.5,506.5C 1676.5,482.167 1676.5,457.833 1676.5,433.5C 1688.68,433.828 1700.68,433.495 1712.5,432.5C 1713.5,384.336 1713.83,336.003 1713.5,287.5C 1737.5,287.5 1761.5,287.5 1785.5,287.5C 1785.17,336.003 1785.5,384.336 1786.5,432.5 Z"/></g>
<g><path style="opacity:1" fill="#fce15e" d="M 1712.5,286.5 C 1737.17,286.5 1761.83,286.5 1786.5,286.5C 1786.5,335.167 1786.5,383.833 1786.5,432.5C 1785.5,384.336 1785.17,336.003 1785.5,287.5C 1761.5,287.5 1737.5,287.5 1713.5,287.5C 1713.83,336.003 1713.5,384.336 1712.5,432.5C 1712.5,383.833 1712.5,335.167 1712.5,286.5 Z"/></g>
<g><path style="opacity:1" fill="#fee268" d="M 1786.5,432.5 C 1798.83,432.5 1811.17,432.5 1823.5,432.5C 1823.5,456.833 1823.5,481.167 1823.5,505.5C 1835.68,505.172 1847.68,505.505 1859.5,506.5C 1847.17,506.5 1834.83,506.5 1822.5,506.5C 1822.5,482.167 1822.5,457.833 1822.5,433.5C 1810.32,433.828 1798.32,433.495 1786.5,432.5 Z"/></g>
<g><path style="opacity:1" fill="#3b361d" d="M 1529.5,578.5 C 1529.83,603.006 1529.5,627.339 1528.5,651.5C 1528.5,639.5 1528.5,627.5 1528.5,615.5C 1495.17,615.167 1495.17,614.833 1528.5,614.5C 1528.17,602.322 1528.5,590.322 1529.5,578.5 Z"/></g>
<g><path style="opacity:1" fill="#fee88a" d="M 1786.5,286.5 C 1798.83,286.5 1811.17,286.5 1823.5,286.5C 1823.5,310.833 1823.5,335.167 1823.5,359.5C 1835.5,359.5 1847.5,359.5 1859.5,359.5C 1859.5,383.833 1859.5,408.167 1859.5,432.5C 1871.83,432.5 1884.17,432.5 1896.5,432.5C 1896.5,456.833 1896.5,481.167 1896.5,505.5C 1908.83,505.5 1921.17,505.5 1933.5,505.5C 1933.5,529.833 1933.5,554.167 1933.5,578.5C 1945.5,578.5 1957.5,578.5 1969.5,578.5C 1969.5,602.833 1969.5,627.167 1969.5,651.5C 1981.83,651.5 1994.17,651.5 2006.5,651.5C 2006.5,675.833 2006.5,700.167 2006.5,724.5C 2055.5,724.5 2104.5,724.5 2153.5,724.5C 2153.5,736.5 2153.5,748.5 2153.5,760.5C 2238.67,761.499 2324,761.833 2409.5,761.5C 2409.5,773.5 2409.5,785.5 2409.5,797.5C 2409.5,809.5 2409.5,821.5 2409.5,833.5C 2434.17,833.5 2458.83,833.5 2483.5,833.5C 2483.5,845.833 2483.5,858.167 2483.5,870.5C 2422.5,870.5 2361.5,870.5 2300.5,870.5C 2300.5,858.167 2300.5,845.833 2300.5,833.5C 2275.83,833.5 2251.17,833.5 2226.5,833.5C 2226.5,821.5 2226.5,809.5 2226.5,797.5C 2165.5,797.5 2104.5,797.5 2043.5,797.5C 2043.5,785.167 2043.5,772.833 2043.5,760.5C 1994.59,760.831 1945.76,760.497 1897,759.5C 1896.83,699.332 1896.33,639.332 1895.5,579.5C 1883.68,578.505 1871.68,578.172 1859.5,578.5C 1859.5,554.5 1859.5,530.5 1859.5,506.5C 1847.68,505.505 1835.68,505.172 1823.5,505.5C 1823.5,481.167 1823.5,456.833 1823.5,432.5C 1811.17,432.5 1798.83,432.5 1786.5,432.5C 1786.5,383.833 1786.5,335.167 1786.5,286.5 Z"/></g>
<g><path style="opacity:1" fill="#716630" d="M 1346.5,724.5 C 1346.5,736.833 1346.5,749.167 1346.5,761.5C 1260.83,761.5 1175.17,761.5 1089.5,761.5C 1089.83,773.678 1089.5,785.678 1088.5,797.5C 1088.5,785.167 1088.5,772.833 1088.5,760.5C 1174.17,760.5 1259.83,760.5 1345.5,760.5C 1345.17,748.322 1345.5,736.322 1346.5,724.5 Z"/></g>
<g><path style="opacity:1" fill="#fddf58" d="M 1895.5,579.5 C 1896.33,639.332 1896.83,699.332 1897,759.5C 1945.76,760.497 1994.59,760.831 2043.5,760.5C 2043.5,772.833 2043.5,785.167 2043.5,797.5C 2042.5,785.678 2042.17,773.678 2042.5,761.5C 1993.59,761.831 1944.76,761.497 1896,760.5C 1895.5,700.168 1895.33,639.834 1895.5,579.5 Z"/></g>
<g><path style="opacity:1" fill="#d5bf68" d="M 2153.5,760.5 C 2239.17,760.5 2324.83,760.5 2410.5,760.5C 2410.5,772.833 2410.5,785.167 2410.5,797.5C 2410.17,797.5 2409.83,797.5 2409.5,797.5C 2409.5,785.5 2409.5,773.5 2409.5,761.5C 2324,761.833 2238.67,761.499 2153.5,760.5 Z"/></g>
<g><path style="opacity:1" fill="#fee88a" d="M 1712.5,286.5 C 1712.5,335.167 1712.5,383.833 1712.5,432.5C 1700.68,433.495 1688.68,433.828 1676.5,433.5C 1676.5,457.833 1676.5,482.167 1676.5,506.5C 1664.17,506.5 1651.83,506.5 1639.5,506.5C 1639.5,530.5 1639.5,554.5 1639.5,578.5C 1627.17,578.5 1614.83,578.5 1602.5,578.5C 1602.5,602.833 1602.5,627.167 1602.5,651.5C 1590.5,651.5 1578.5,651.5 1566.5,651.5C 1566.5,675.833 1566.5,700.167 1566.5,724.5C 1554.17,724.5 1541.83,724.5 1529.5,724.5C 1529.5,748.833 1529.5,773.167 1529.5,797.5C 1468.17,797.5 1406.83,797.5 1345.5,797.5C 1345.5,809.5 1345.5,821.5 1345.5,833.5C 1199.17,833.5 1052.83,833.5 906.5,833.5C 906.167,833.5 905.833,833.5 905.5,833.5C 893.5,833.5 881.5,833.5 869.5,833.5C 869.5,821.5 869.5,809.5 869.5,797.5C 942.5,797.5 1015.5,797.5 1088.5,797.5C 1089.5,785.678 1089.83,773.678 1089.5,761.5C 1175.17,761.5 1260.83,761.5 1346.5,761.5C 1346.5,749.167 1346.5,736.833 1346.5,724.5C 1395.17,724.5 1443.83,724.5 1492.5,724.5C 1492.5,700.167 1492.5,675.833 1492.5,651.5C 1504.5,651.5 1516.5,651.5 1528.5,651.5C 1529.5,627.339 1529.83,603.006 1529.5,578.5C 1541.5,578.5 1553.5,578.5 1565.5,578.5C 1565.5,554.167 1565.5,529.833 1565.5,505.5C 1577.83,505.5 1590.17,505.5 1602.5,505.5C 1602.5,481.167 1602.5,456.833 1602.5,432.5C 1614.83,432.5 1627.17,432.5 1639.5,432.5C 1639.5,408.167 1639.5,383.833 1639.5,359.5C 1651.5,359.5 1663.5,359.5 1675.5,359.5C 1675.5,335.167 1675.5,310.833 1675.5,286.5C 1687.83,286.5 1700.17,286.5 1712.5,286.5 Z"/></g>
<g><path style="opacity:1" fill="#554b22" d="M 869.5,797.5 C 869.5,809.5 869.5,821.5 869.5,833.5C 881.5,833.5 893.5,833.5 905.5,833.5C 905.5,833.833 905.5,834.167 905.5,834.5C 893.167,834.5 880.833,834.5 868.5,834.5C 868.171,821.989 868.505,809.655 869.5,797.5 Z"/></g>
<g><path style="opacity:1" fill="#fde263" d="M 2226.5,833.5 C 2251.17,833.5 2275.83,833.5 2300.5,833.5C 2300.5,845.833 2300.5,858.167 2300.5,870.5C 2299.5,858.678 2299.17,846.678 2299.5,834.5C 2274.99,834.831 2250.66,834.498 2226.5,833.5 Z"/></g>
<g><path style="opacity:1" fill="#3c350d" d="M 2629.5,797.5 C 2630.5,809.322 2630.83,821.322 2630.5,833.5C 2640.84,833.334 2651.17,833.5 2661.5,834C 2638.84,834.5 2616.17,834.667 2593.5,834.5C 2593.5,834.167 2593.5,833.833 2593.5,833.5C 2605.5,833.5 2617.5,833.5 2629.5,833.5C 2629.5,821.5 2629.5,809.5 2629.5,797.5 Z"/></g>
<g><path style="opacity:1" fill="#b99e27" d="M 905.5,833.5 C 905.833,833.5 906.167,833.5 906.5,833.5C 906.5,845.5 906.5,857.5 906.5,869.5C 918.678,869.172 930.678,869.505 942.5,870.5C 930.167,870.5 917.833,870.5 905.5,870.5C 905.5,858.5 905.5,846.5 905.5,834.5C 905.5,834.167 905.5,833.833 905.5,833.5 Z"/></g>
<g><path style="opacity:1" fill="#b99d27" d="M 2593.5,833.5 C 2593.5,833.833 2593.5,834.167 2593.5,834.5C 2593.5,846.5 2593.5,858.5 2593.5,870.5C 2581.17,870.5 2568.83,870.5 2556.5,870.5C 2568.32,869.505 2580.32,869.172 2592.5,869.5C 2592.17,857.322 2592.5,845.322 2593.5,833.5 Z"/></g>
<g><path style="opacity:1" fill="#000000" d="M 1675.5,870.5 C 1675.5,882.5 1675.5,894.5 1675.5,906.5C 1651.17,906.5 1626.83,906.5 1602.5,906.5C 1602.5,894.5 1602.5,882.5 1602.5,870.5C 1626.83,870.5 1651.17,870.5 1675.5,870.5 Z"/></g>
<g><path style="opacity:1" fill="#000000" d="M 1932.5,870.5 C 1932.5,894.5 1932.5,918.5 1932.5,942.5C 1920.5,942.5 1908.5,942.5 1896.5,942.5C 1896.5,930.5 1896.5,918.5 1896.5,906.5C 1884.17,906.5 1871.83,906.5 1859.5,906.5C 1859.5,894.5 1859.5,882.5 1859.5,870.5C 1883.83,870.5 1908.17,870.5 1932.5,870.5 Z"/></g>
<g><path style="opacity:1" fill="#010100" d="M 905.5,870.5 C 917.833,870.5 930.167,870.5 942.5,870.5C 942.5,882.5 942.5,894.5 942.5,906.5C 954.322,907.495 966.322,907.828 978.5,907.5C 978.5,919.5 978.5,931.5 978.5,943.5C 966.167,943.5 953.833,943.5 941.5,943.5C 941.5,931.5 941.5,919.5 941.5,907.5C 929.5,907.5 917.5,907.5 905.5,907.5C 905.5,895.167 905.5,882.833 905.5,870.5 Z"/></g>
<g><path style="opacity:1" fill="#000000" d="M 1529.5,907.5 C 1553.83,907.5 1578.17,907.5 1602.5,907.5C 1602.5,919.5 1602.5,931.5 1602.5,943.5C 1590.5,943.5 1578.5,943.5 1566.5,943.5C 1565.5,955.322 1565.17,967.322 1565.5,979.5C 1553.5,979.5 1541.5,979.5 1529.5,979.5C 1529.5,955.5 1529.5,931.5 1529.5,907.5 Z"/></g>
<g><path style="opacity:1" fill="#fdfdfd" d="M 1602.5,907.5 C 1614.83,907.5 1627.17,907.5 1639.5,907.5C 1639.5,919.5 1639.5,931.5 1639.5,943.5C 1651.5,943.5 1663.5,943.5 1675.5,943.5C 1675.5,955.5 1675.5,967.5 1675.5,979.5C 1639.17,979.5 1602.83,979.5 1566.5,979.5C 1566.5,967.5 1566.5,955.5 1566.5,943.5C 1578.5,943.5 1590.5,943.5 1602.5,943.5C 1602.5,931.5 1602.5,919.5 1602.5,907.5 Z"/></g>
<g><path style="opacity:1" fill="#000000" d="M 1639.5,907.5 C 1651.5,907.5 1663.5,907.5 1675.5,907.5C 1675.5,919.5 1675.5,931.5 1675.5,943.5C 1675.5,931.5 1675.5,919.5 1675.5,907.5C 1663.5,907.5 1651.5,907.5 1639.5,907.5 Z"/></g>
<g><path style="opacity:1" fill="#010101" d="M 1859.5,907.5 C 1859.5,919.5 1859.5,931.5 1859.5,943.5C 1847.5,943.5 1835.5,943.5 1823.5,943.5C 1822.5,955.655 1822.17,967.989 1822.5,980.5C 1822.5,992.167 1822.5,1003.83 1822.5,1015.5C 1810.5,1015.5 1798.5,1015.5 1786.5,1015.5C 1786.5,979.5 1786.5,943.5 1786.5,907.5C 1810.83,907.5 1835.17,907.5 1859.5,907.5 Z"/></g>
<g><path style="opacity:1" fill="#fefefd" d="M 1859.5,906.5 C 1871.83,906.5 1884.17,906.5 1896.5,906.5C 1896.5,918.5 1896.5,930.5 1896.5,942.5C 1908.66,943.495 1920.99,943.829 1933.5,943.5C 1933.5,955.5 1933.5,967.5 1933.5,979.5C 1896.83,979.5 1860.17,979.5 1823.5,979.5C 1823.5,967.5 1823.5,955.5 1823.5,943.5C 1835.5,943.5 1847.5,943.5 1859.5,943.5C 1859.5,931.5 1859.5,919.5 1859.5,907.5C 1859.5,907.167 1859.5,906.833 1859.5,906.5 Z"/></g>
<g><path style="opacity:1" fill="#000000" d="M 1969.5,907.5 C 1969.5,943.5 1969.5,979.5 1969.5,1015.5C 1957.5,1015.5 1945.5,1015.5 1933.5,1015.5C 1933.5,1003.83 1933.5,992.167 1933.5,980.5C 1978.83,980.167 1978.83,979.833 1933.5,979.5C 1933.5,967.5 1933.5,955.5 1933.5,943.5C 1933.5,931.5 1933.5,919.5 1933.5,907.5C 1945.5,907.5 1957.5,907.5 1969.5,907.5 Z"/></g>
<g><path style="opacity:1" fill="#010100" d="M 2556.5,870.5 C 2568.83,870.5 2581.17,870.5 2593.5,870.5C 2593.5,882.833 2593.5,895.167 2593.5,907.5C 2581.5,907.5 2569.5,907.5 2557.5,907.5C 2557.5,919.5 2557.5,931.5 2557.5,943.5C 2545.17,943.5 2532.83,943.5 2520.5,943.5C 2520.5,931.5 2520.5,919.5 2520.5,907.5C 2532.68,907.828 2544.68,907.495 2556.5,906.5C 2556.5,894.5 2556.5,882.5 2556.5,870.5 Z"/></g>
<g><path style="opacity:1" fill="#635511" d="M 942.5,906.5 C 954.833,906.5 967.167,906.5 979.5,906.5C 979.5,918.833 979.5,931.167 979.5,943.5C 979.167,943.5 978.833,943.5 978.5,943.5C 978.5,931.5 978.5,919.5 978.5,907.5C 966.322,907.828 954.322,907.495 942.5,906.5 Z"/></g>
<g><path style="opacity:1" fill="#393719" d="M 1675.5,870.5 C 1676.5,882.322 1676.83,894.322 1676.5,906.5C 1688.5,906.5 1700.5,906.5 1712.5,906.5C 1712.5,906.833 1712.5,907.167 1712.5,907.5C 1700.5,907.5 1688.5,907.5 1676.5,907.5C 1676.5,919.5 1676.5,931.5 1676.5,943.5C 1676.17,943.5 1675.83,943.5 1675.5,943.5C 1675.5,931.5 1675.5,919.5 1675.5,907.5C 1663.5,907.5 1651.5,907.5 1639.5,907.5C 1627.17,907.5 1614.83,907.5 1602.5,907.5C 1578.17,907.5 1553.83,907.5 1529.5,907.5C 1553.66,906.502 1577.99,906.169 1602.5,906.5C 1626.83,906.5 1651.17,906.5 1675.5,906.5C 1675.5,894.5 1675.5,882.5 1675.5,870.5 Z"/></g>
<g><path style="opacity:1" fill="#3d3719" d="M 1932.5,870.5 C 1933.5,882.322 1933.83,894.322 1933.5,906.5C 1945.68,906.172 1957.68,906.505 1969.5,907.5C 1957.5,907.5 1945.5,907.5 1933.5,907.5C 1933.5,919.5 1933.5,931.5 1933.5,943.5C 1920.99,943.829 1908.66,943.495 1896.5,942.5C 1908.5,942.5 1920.5,942.5 1932.5,942.5C 1932.5,918.5 1932.5,894.5 1932.5,870.5 Z"/></g>
<g><path style="opacity:1" fill="#645513" d="M 2556.5,906.5 C 2544.68,907.495 2532.68,907.828 2520.5,907.5C 2520.5,919.5 2520.5,931.5 2520.5,943.5C 2520.17,943.5 2519.83,943.5 2519.5,943.5C 2519.5,931.167 2519.5,918.833 2519.5,906.5C 2531.83,906.5 2544.17,906.5 2556.5,906.5 Z"/></g>
<g><path style="opacity:1" fill="#030200" d="M 978.5,943.5 C 978.833,943.5 979.167,943.5 979.5,943.5C 991.5,943.5 1003.5,943.5 1015.5,943.5C 1015.5,955.5 1015.5,967.5 1015.5,979.5C 1028.01,979.171 1040.34,979.505 1052.5,980.5C 1040.17,980.5 1027.83,980.5 1015.5,980.5C 1003.17,980.5 990.833,980.5 978.5,980.5C 978.5,968.167 978.5,955.833 978.5,943.5 Z"/></g>
<g><path style="opacity:1" fill="#6c5b14" d="M 1859.5,906.5 C 1859.5,906.833 1859.5,907.167 1859.5,907.5C 1835.17,907.5 1810.83,907.5 1786.5,907.5C 1786.5,943.5 1786.5,979.5 1786.5,1015.5C 1786.5,1015.83 1786.5,1016.17 1786.5,1016.5C 1786.5,1040.5 1786.5,1064.5 1786.5,1088.5C 1786.5,1088.83 1786.5,1089.17 1786.5,1089.5C 1786.5,1101.5 1786.5,1113.5 1786.5,1125.5C 1785.5,1052.67 1785.17,979.669 1785.5,906.5C 1810.17,906.5 1834.83,906.5 1859.5,906.5 Z"/></g>
<g><path style="opacity:1" fill="#000000" d="M 2519.5,943.5 C 2519.83,943.5 2520.17,943.5 2520.5,943.5C 2520.5,955.833 2520.5,968.167 2520.5,980.5C 2508.17,980.5 2495.83,980.5 2483.5,980.5C 2483.5,980.167 2483.5,979.833 2483.5,979.5C 2483.5,967.5 2483.5,955.5 2483.5,943.5C 2495.5,943.5 2507.5,943.5 2519.5,943.5 Z"/></g>
<g><path style="opacity:1" fill="#494b33" d="M 1675.5,943.5 C 1675.83,943.5 1676.17,943.5 1676.5,943.5C 1676.5,955.833 1676.5,968.167 1676.5,980.5C 1676.17,980.5 1675.83,980.5 1675.5,980.5C 1639.17,980.5 1602.83,980.5 1566.5,980.5C 1566.5,980.167 1566.5,979.833 1566.5,979.5C 1602.83,979.5 1639.17,979.5 1675.5,979.5C 1675.5,967.5 1675.5,955.5 1675.5,943.5 Z"/></g>
<g><path style="opacity:1" fill="#000000" d="M 1823.5,980.5 C 1859.83,980.5 1896.17,980.5 1932.5,980.5C 1932.5,992.167 1932.5,1003.83 1932.5,1015.5C 1908.17,1015.5 1883.83,1015.5 1859.5,1015.5C 1847.5,1015.5 1835.5,1015.5 1823.5,1015.5C 1823.5,1003.83 1823.5,992.167 1823.5,980.5 Z"/></g>
<g><path style="opacity:1" fill="#333218" d="M 1823.5,943.5 C 1823.5,955.5 1823.5,967.5 1823.5,979.5C 1860.17,979.5 1896.83,979.5 1933.5,979.5C 1978.83,979.833 1978.83,980.167 1933.5,980.5C 1933.5,992.167 1933.5,1003.83 1933.5,1015.5C 1945.5,1015.5 1957.5,1015.5 1969.5,1015.5C 1969.5,1015.83 1969.5,1016.17 1969.5,1016.5C 1957.5,1016.5 1945.5,1016.5 1933.5,1016.5C 1933.17,1016.5 1932.83,1016.5 1932.5,1016.5C 1908.17,1016.5 1883.83,1016.5 1859.5,1016.5C 1859.5,1016.17 1859.5,1015.83 1859.5,1015.5C 1883.83,1015.5 1908.17,1015.5 1932.5,1015.5C 1932.5,1003.83 1932.5,992.167 1932.5,980.5C 1896.17,980.5 1859.83,980.5 1823.5,980.5C 1823.17,980.5 1822.83,980.5 1822.5,980.5C 1822.17,967.989 1822.5,955.655 1823.5,943.5 Z"/></g>
<g><path style="opacity:1" fill="#000000" d="M 1015.5,980.5 C 1027.83,980.5 1040.17,980.5 1052.5,980.5C 1052.5,992.167 1052.5,1003.83 1052.5,1015.5C 1064.32,1016.5 1076.32,1016.83 1088.5,1016.5C 1088.17,1028.68 1088.5,1040.68 1089.5,1052.5C 1101.5,1052.5 1113.5,1052.5 1125.5,1052.5C 1125.5,1064.83 1125.5,1077.17 1125.5,1089.5C 1113.17,1089.5 1100.83,1089.5 1088.5,1089.5C 1088.5,1077.5 1088.5,1065.5 1088.5,1053.5C 1076.17,1053.5 1063.83,1053.5 1051.5,1053.5C 1051.5,1041.17 1051.5,1028.83 1051.5,1016.5C 1039.5,1016.5 1027.5,1016.5 1015.5,1016.5C 1015.5,1004.5 1015.5,992.5 1015.5,980.5 Z"/></g>
<g><path style="opacity:1" fill="#000000" d="M 1529.5,980.5 C 1541.5,980.5 1553.5,980.5 1565.5,980.5C 1565.5,992.167 1565.5,1003.83 1565.5,1015.5C 1518.83,1015.83 1518.83,1016.17 1565.5,1016.5C 1565.5,1040.5 1565.5,1064.5 1565.5,1088.5C 1553.5,1088.5 1541.5,1088.5 1529.5,1088.5C 1529.5,1052.5 1529.5,1016.5 1529.5,980.5 Z"/></g>
<g><path style="opacity:1" fill="#000000" d="M 1566.5,980.5 C 1602.83,980.5 1639.17,980.5 1675.5,980.5C 1675.5,992.167 1675.5,1003.83 1675.5,1015.5C 1531.5,1015.83 1531.5,1016.17 1675.5,1016.5C 1675.5,1028.5 1675.5,1040.5 1675.5,1052.5C 1675.5,1064.5 1675.5,1076.5 1675.5,1088.5C 1639.17,1088.5 1602.83,1088.5 1566.5,1088.5C 1566.5,1052.5 1566.5,1016.5 1566.5,980.5 Z"/></g>
<g><path style="opacity:1" fill="#000000" d="M 1712.5,907.5 C 1712.5,980.167 1712.5,1052.83 1712.5,1125.5C 1700.5,1125.5 1688.5,1125.5 1676.5,1125.5C 1676.5,1113.5 1676.5,1101.5 1676.5,1089.5C 1723.17,1089.17 1723.17,1088.83 1676.5,1088.5C 1676.5,1076.5 1676.5,1064.5 1676.5,1052.5C 1676.5,1040.5 1676.5,1028.5 1676.5,1016.5C 1723.17,1016.17 1723.17,1015.83 1676.5,1015.5C 1676.5,1003.83 1676.5,992.167 1676.5,980.5C 1676.5,968.167 1676.5,955.833 1676.5,943.5C 1676.5,931.5 1676.5,919.5 1676.5,907.5C 1688.5,907.5 1700.5,907.5 1712.5,907.5 Z"/></g>
<g><path style="opacity:1" fill="#000000" d="M 1786.5,1016.5 C 1798.5,1016.5 1810.5,1016.5 1822.5,1016.5C 1822.5,1040.5 1822.5,1064.5 1822.5,1088.5C 1810.5,1088.5 1798.5,1088.5 1786.5,1088.5C 1786.5,1064.5 1786.5,1040.5 1786.5,1016.5 Z"/></g>
<g><path style="opacity:1" fill="#000000" d="M 1933.5,1016.5 C 1945.5,1016.5 1957.5,1016.5 1969.5,1016.5C 1969.5,1052.83 1969.5,1089.17 1969.5,1125.5C 1957.5,1125.5 1945.5,1125.5 1933.5,1125.5C 1933.5,1113.5 1933.5,1101.5 1933.5,1089.5C 1978.83,1089.17 1978.83,1088.83 1933.5,1088.5C 1933.5,1064.5 1933.5,1040.5 1933.5,1016.5 Z"/></g>
<g><path style="opacity:1" fill="#010000" d="M 2483.5,979.5 C 2483.5,979.833 2483.5,980.167 2483.5,980.5C 2483.5,992.5 2483.5,1004.5 2483.5,1016.5C 2471.5,1016.5 2459.5,1016.5 2447.5,1016.5C 2447.5,1028.83 2447.5,1041.17 2447.5,1053.5C 2435.17,1053.5 2422.83,1053.5 2410.5,1053.5C 2410.5,1065.5 2410.5,1077.5 2410.5,1089.5C 2398.17,1089.5 2385.83,1089.5 2373.5,1089.5C 2373.5,1077.17 2373.5,1064.83 2373.5,1052.5C 2385.5,1052.5 2397.5,1052.5 2409.5,1052.5C 2410.5,1040.68 2410.83,1028.68 2410.5,1016.5C 2422.68,1016.83 2434.68,1016.5 2446.5,1015.5C 2446.5,1003.5 2446.5,991.5 2446.5,979.5C 2458.83,979.5 2471.17,979.5 2483.5,979.5 Z"/></g>
<g><path style="opacity:1" fill="#56470e" d="M 1052.5,1015.5 C 1064.83,1015.5 1077.17,1015.5 1089.5,1015.5C 1089.5,1027.83 1089.5,1040.17 1089.5,1052.5C 1088.5,1040.68 1088.17,1028.68 1088.5,1016.5C 1076.32,1016.83 1064.32,1016.5 1052.5,1015.5 Z"/></g>
<g><path style="opacity:1" fill="#2e2909" d="M 1675.5,980.5 C 1675.83,980.5 1676.17,980.5 1676.5,980.5C 1676.5,992.167 1676.5,1003.83 1676.5,1015.5C 1723.17,1015.83 1723.17,1016.17 1676.5,1016.5C 1676.5,1028.5 1676.5,1040.5 1676.5,1052.5C 1676.17,1052.5 1675.83,1052.5 1675.5,1052.5C 1675.5,1040.5 1675.5,1028.5 1675.5,1016.5C 1531.5,1016.17 1531.5,1015.83 1675.5,1015.5C 1675.5,1003.83 1675.5,992.167 1675.5,980.5 Z"/></g>
<g><path style="opacity:1" fill="#56460e" d="M 2446.5,1015.5 C 2434.68,1016.5 2422.68,1016.83 2410.5,1016.5C 2410.83,1028.68 2410.5,1040.68 2409.5,1052.5C 2409.5,1040.17 2409.5,1027.83 2409.5,1015.5C 2421.83,1015.5 2434.17,1015.5 2446.5,1015.5 Z"/></g>
<g><path style="opacity:1" fill="#1d1c03" d="M 1822.5,980.5 C 1822.83,980.5 1823.17,980.5 1823.5,980.5C 1823.5,992.167 1823.5,1003.83 1823.5,1015.5C 1835.5,1015.5 1847.5,1015.5 1859.5,1015.5C 1859.5,1015.83 1859.5,1016.17 1859.5,1016.5C 1847.5,1016.5 1835.5,1016.5 1823.5,1016.5C 1823.5,1040.5 1823.5,1064.5 1823.5,1088.5C 1859.83,1088.5 1896.17,1088.5 1932.5,1088.5C 1932.5,1064.5 1932.5,1040.5 1932.5,1016.5C 1932.83,1016.5 1933.17,1016.5 1933.5,1016.5C 1933.5,1040.5 1933.5,1064.5 1933.5,1088.5C 1978.83,1088.83 1978.83,1089.17 1933.5,1089.5C 1933.5,1101.5 1933.5,1113.5 1933.5,1125.5C 1933.17,1125.5 1932.83,1125.5 1932.5,1125.5C 1932.5,1113.5 1932.5,1101.5 1932.5,1089.5C 1896.17,1089.5 1859.83,1089.5 1823.5,1089.5C 1823.5,1101.5 1823.5,1113.5 1823.5,1125.5C 1823.17,1125.5 1822.83,1125.5 1822.5,1125.5C 1822.5,1113.5 1822.5,1101.5 1822.5,1089.5C 1810.5,1089.5 1798.5,1089.5 1786.5,1089.5C 1786.5,1089.17 1786.5,1088.83 1786.5,1088.5C 1798.5,1088.5 1810.5,1088.5 1822.5,1088.5C 1822.5,1064.5 1822.5,1040.5 1822.5,1016.5C 1810.5,1016.5 1798.5,1016.5 1786.5,1016.5C 1786.5,1016.17 1786.5,1015.83 1786.5,1015.5C 1798.5,1015.5 1810.5,1015.5 1822.5,1015.5C 1822.5,1003.83 1822.5,992.167 1822.5,980.5 Z"/></g>
<g><path style="opacity:1" fill="#000000" d="M 1859.5,1016.5 C 1883.83,1016.5 1908.17,1016.5 1932.5,1016.5C 1932.5,1040.5 1932.5,1064.5 1932.5,1088.5C 1896.17,1088.5 1859.83,1088.5 1823.5,1088.5C 1823.5,1064.5 1823.5,1040.5 1823.5,1016.5C 1835.5,1016.5 1847.5,1016.5 1859.5,1016.5 Z"/></g>
<g><path style="opacity:1" fill="#000000" d="M 1529.5,1089.5 C 1541.5,1089.5 1553.5,1089.5 1565.5,1089.5C 1565.5,1101.5 1565.5,1113.5 1565.5,1125.5C 1565.5,1113.5 1565.5,1101.5 1565.5,1089.5C 1553.5,1089.5 1541.5,1089.5 1529.5,1089.5 Z"/></g>
<g><path style="opacity:1" fill="#000000" d="M 1675.5,1125.5 C 1675.5,1137.5 1675.5,1149.5 1675.5,1161.5C 1639.17,1161.5 1602.83,1161.5 1566.5,1161.5C 1566.5,1149.5 1566.5,1137.5 1566.5,1125.5C 1566.5,1113.5 1566.5,1101.5 1566.5,1089.5C 1602.83,1089.5 1639.17,1089.5 1675.5,1089.5C 1675.5,1101.5 1675.5,1113.5 1675.5,1125.5 Z"/></g>
<g><path style="opacity:1" fill="#000000" d="M 1786.5,1089.5 C 1798.5,1089.5 1810.5,1089.5 1822.5,1089.5C 1822.5,1101.5 1822.5,1113.5 1822.5,1125.5C 1810.5,1125.5 1798.5,1125.5 1786.5,1125.5C 1786.5,1113.5 1786.5,1101.5 1786.5,1089.5 Z"/></g>
<g><path style="opacity:1" fill="#000000" d="M 1932.5,1125.5 C 1932.5,1137.5 1932.5,1149.5 1932.5,1161.5C 1896.17,1161.5 1859.83,1161.5 1823.5,1161.5C 1823.5,1149.5 1823.5,1137.5 1823.5,1125.5C 1823.5,1113.5 1823.5,1101.5 1823.5,1089.5C 1859.83,1089.5 1896.17,1089.5 1932.5,1089.5C 1932.5,1101.5 1932.5,1113.5 1932.5,1125.5 Z"/></g>
<g><path style="opacity:1" fill="#1d1d05" d="M 1566.5,943.5 C 1566.5,955.5 1566.5,967.5 1566.5,979.5C 1566.5,979.833 1566.5,980.167 1566.5,980.5C 1566.5,1016.5 1566.5,1052.5 1566.5,1088.5C 1602.83,1088.5 1639.17,1088.5 1675.5,1088.5C 1675.5,1076.5 1675.5,1064.5 1675.5,1052.5C 1675.83,1052.5 1676.17,1052.5 1676.5,1052.5C 1676.5,1064.5 1676.5,1076.5 1676.5,1088.5C 1723.17,1088.83 1723.17,1089.17 1676.5,1089.5C 1676.5,1101.5 1676.5,1113.5 1676.5,1125.5C 1676.17,1125.5 1675.83,1125.5 1675.5,1125.5C 1675.5,1113.5 1675.5,1101.5 1675.5,1089.5C 1639.17,1089.5 1602.83,1089.5 1566.5,1089.5C 1566.5,1101.5 1566.5,1113.5 1566.5,1125.5C 1566.17,1125.5 1565.83,1125.5 1565.5,1125.5C 1565.5,1113.5 1565.5,1101.5 1565.5,1089.5C 1553.5,1089.5 1541.5,1089.5 1529.5,1089.5C 1529.5,1089.17 1529.5,1088.83 1529.5,1088.5C 1541.5,1088.5 1553.5,1088.5 1565.5,1088.5C 1565.5,1064.5 1565.5,1040.5 1565.5,1016.5C 1518.83,1016.17 1518.83,1015.83 1565.5,1015.5C 1565.5,1003.83 1565.5,992.167 1565.5,980.5C 1553.5,980.5 1541.5,980.5 1529.5,980.5C 1529.5,980.167 1529.5,979.833 1529.5,979.5C 1541.5,979.5 1553.5,979.5 1565.5,979.5C 1565.17,967.322 1565.5,955.322 1566.5,943.5 Z"/></g>
<g><path style="opacity:1" fill="#000000" d="M 1125.5,1089.5 C 1137.83,1089.5 1150.17,1089.5 1162.5,1089.5C 1162.5,1101.5 1162.5,1113.5 1162.5,1125.5C 1174.5,1125.5 1186.5,1125.5 1198.5,1125.5C 1198.5,1137.83 1198.5,1150.17 1198.5,1162.5C 1186.17,1162.5 1173.83,1162.5 1161.5,1162.5C 1161.5,1150.5 1161.5,1138.5 1161.5,1126.5C 1149.5,1126.5 1137.5,1126.5 1125.5,1126.5C 1125.5,1114.17 1125.5,1101.83 1125.5,1089.5 Z"/></g>
<g><path style="opacity:1" fill="#9b8320" d="M 1712.5,906.5 C 1713.5,979.665 1713.83,1053 1713.5,1126.5C 1701.17,1126.5 1688.83,1126.5 1676.5,1126.5C 1676.5,1126.17 1676.5,1125.83 1676.5,1125.5C 1688.5,1125.5 1700.5,1125.5 1712.5,1125.5C 1712.5,1052.83 1712.5,980.167 1712.5,907.5C 1712.5,907.167 1712.5,906.833 1712.5,906.5 Z"/></g>
<g><path style="opacity:1" fill="#000000" d="M 2373.5,1089.5 C 2373.5,1101.83 2373.5,1114.17 2373.5,1126.5C 2361.5,1126.5 2349.5,1126.5 2337.5,1126.5C 2337.5,1138.5 2337.5,1150.5 2337.5,1162.5C 2325.17,1162.5 2312.83,1162.5 2300.5,1162.5C 2300.5,1150.17 2300.5,1137.83 2300.5,1125.5C 2312.5,1125.5 2324.5,1125.5 2336.5,1125.5C 2336.5,1113.5 2336.5,1101.5 2336.5,1089.5C 2348.83,1089.5 2361.17,1089.5 2373.5,1089.5 Z"/></g>
<g><path style="opacity:1" fill="#655614" d="M 1198.5,1125.5 C 1199.5,1137.32 1199.83,1149.32 1199.5,1161.5C 1211.68,1161.17 1223.68,1161.5 1235.5,1162.5C 1223.17,1162.5 1210.83,1162.5 1198.5,1162.5C 1198.5,1150.17 1198.5,1137.83 1198.5,1125.5 Z"/></g>
<g><path style="opacity:1" fill="#4c400d" d="M 1565.5,1125.5 C 1565.83,1125.5 1566.17,1125.5 1566.5,1125.5C 1566.5,1137.5 1566.5,1149.5 1566.5,1161.5C 1602.83,1161.5 1639.17,1161.5 1675.5,1161.5C 1675.5,1149.5 1675.5,1137.5 1675.5,1125.5C 1675.83,1125.5 1676.17,1125.5 1676.5,1125.5C 1676.5,1125.83 1676.5,1126.17 1676.5,1126.5C 1676.5,1138.5 1676.5,1150.5 1676.5,1162.5C 1639.5,1162.5 1602.5,1162.5 1565.5,1162.5C 1565.5,1150.17 1565.5,1137.83 1565.5,1125.5 Z"/></g>
<g><path style="opacity:1" fill="#4c400d" d="M 1822.5,1125.5 C 1822.83,1125.5 1823.17,1125.5 1823.5,1125.5C 1823.5,1137.5 1823.5,1149.5 1823.5,1161.5C 1859.83,1161.5 1896.17,1161.5 1932.5,1161.5C 1932.5,1149.5 1932.5,1137.5 1932.5,1125.5C 1932.83,1125.5 1933.17,1125.5 1933.5,1125.5C 1933.5,1137.83 1933.5,1150.17 1933.5,1162.5C 1896.5,1162.5 1859.5,1162.5 1822.5,1162.5C 1822.5,1150.17 1822.5,1137.83 1822.5,1125.5 Z"/></g>
<g><path style="opacity:1" fill="#665514" d="M 2300.5,1125.5 C 2300.5,1137.83 2300.5,1150.17 2300.5,1162.5C 2288.17,1162.5 2275.83,1162.5 2263.5,1162.5C 2275.32,1161.5 2287.32,1161.17 2299.5,1161.5C 2299.17,1149.32 2299.5,1137.32 2300.5,1125.5 Z"/></g>
<g><path style="opacity:1" fill="#000000" d="M 1198.5,1162.5 C 1210.83,1162.5 1223.17,1162.5 1235.5,1162.5C 1235.5,1174.5 1235.5,1186.5 1235.5,1198.5C 1247.83,1198.5 1260.17,1198.5 1272.5,1198.5C 1272.5,1210.5 1272.5,1222.5 1272.5,1234.5C 1272.5,1234.83 1272.5,1235.17 1272.5,1235.5C 1272.17,1235.5 1271.83,1235.5 1271.5,1235.5C 1259.5,1235.5 1247.5,1235.5 1235.5,1235.5C 1235.5,1223.5 1235.5,1211.5 1235.5,1199.5C 1223.17,1199.5 1210.83,1199.5 1198.5,1199.5C 1198.5,1187.17 1198.5,1174.83 1198.5,1162.5 Z"/></g>
<g><path style="opacity:1" fill="#5a490f" d="M 1272.5,1235.5 C 1272.5,1235.17 1272.5,1234.83 1272.5,1234.5C 1284.83,1234.5 1297.17,1234.5 1309.5,1234.5C 1309.5,1259.17 1309.5,1283.83 1309.5,1308.5C 1297.17,1308.5 1284.83,1308.5 1272.5,1308.5C 1272.5,1308.17 1272.5,1307.83 1272.5,1307.5C 1284.5,1307.5 1296.5,1307.5 1308.5,1307.5C 1308.5,1283.5 1308.5,1259.5 1308.5,1235.5C 1296.5,1235.5 1284.5,1235.5 1272.5,1235.5 Z"/></g>
<g><path style="opacity:1" fill="#5a4a0f" d="M 2226.5,1234.5 C 2214.68,1235.5 2202.68,1235.83 2190.5,1235.5C 2190.5,1259.5 2190.5,1283.5 2190.5,1307.5C 2202.68,1307.17 2214.68,1307.5 2226.5,1308.5C 2214.17,1308.5 2201.83,1308.5 2189.5,1308.5C 2189.5,1283.83 2189.5,1259.17 2189.5,1234.5C 2201.83,1234.5 2214.17,1234.5 2226.5,1234.5 Z"/></g>
<g><path style="opacity:1" fill="#000000" d="M 2263.5,1162.5 C 2275.83,1162.5 2288.17,1162.5 2300.5,1162.5C 2300.5,1174.83 2300.5,1187.17 2300.5,1199.5C 2288.17,1199.5 2275.83,1199.5 2263.5,1199.5C 2263.5,1211.5 2263.5,1223.5 2263.5,1235.5C 2251.5,1235.5 2239.5,1235.5 2227.5,1235.5C 2227.5,1259.5 2227.5,1283.5 2227.5,1307.5C 2239.5,1307.5 2251.5,1307.5 2263.5,1307.5C 2263.5,1368.17 2263.5,1428.83 2263.5,1489.5C 2275.83,1489.5 2288.17,1489.5 2300.5,1489.5C 2300.5,1562.5 2300.5,1635.5 2300.5,1708.5C 2312.83,1708.5 2325.17,1708.5 2337.5,1708.5C 2337.5,1718.17 2337.5,1727.83 2337.5,1737.5C 2417.83,1737.5 2498.17,1737.5 2578.5,1737.5C 2578.5,2002.83 2578.5,2268.17 2578.5,2533.5C 2556.17,2533.5 2533.83,2533.5 2511.5,2533.5C 2511.5,2555.5 2511.5,2577.5 2511.5,2599.5C 2500.5,2599.5 2489.5,2599.5 2478.5,2599.5C 2478.5,3019.17 2478.5,3438.83 2478.5,3858.5C 2467.17,3858.5 2455.83,3858.5 2444.5,3858.5C 2444.5,3438.83 2444.5,3019.17 2444.5,2599.5C 2455.5,2599.5 2466.5,2599.5 2477.5,2599.5C 2477.5,2577.5 2477.5,2555.5 2477.5,2533.5C 2344.17,2533.5 2210.83,2533.5 2077.5,2533.5C 2066.5,2533.5 2055.5,2533.5 2044.5,2533.5C 2033.5,2533.5 2022.5,2533.5 2011.5,2533.5C 1878.17,2533.5 1744.83,2533.5 1611.5,2533.5C 1522.5,2533.5 1433.5,2533.5 1344.5,2533.5C 1300.17,2533.5 1255.83,2533.5 1211.5,2533.5C 1155.83,2533.5 1100.17,2533.5 1044.5,2533.5C 1044.5,2555.5 1044.5,2577.5 1044.5,2599.5C 1033.5,2599.5 1022.5,2599.5 1011.5,2599.5C 1011.5,2577.5 1011.5,2555.5 1011.5,2533.5C 989.167,2533.5 966.833,2533.5 944.5,2533.5C 944.5,2268.17 944.5,2002.83 944.5,1737.5C 1016.83,1737.5 1089.17,1737.5 1161.5,1737.5C 1161.5,1727.83 1161.5,1718.17 1161.5,1708.5C 1173.83,1708.5 1186.17,1708.5 1198.5,1708.5C 1198.5,1635.5 1198.5,1562.5 1198.5,1489.5C 1210.83,1489.5 1223.17,1489.5 1235.5,1489.5C 1235.5,1428.83 1235.5,1368.17 1235.5,1307.5C 1247.5,1307.5 1259.5,1307.5 1271.5,1307.5C 1271.5,1283.5 1271.5,1259.5 1271.5,1235.5C 1271.83,1235.5 1272.17,1235.5 1272.5,1235.5C 1272.5,1259.5 1272.5,1283.5 1272.5,1307.5C 1272.5,1307.83 1272.5,1308.17 1272.5,1308.5C 1272.5,1381.17 1272.5,1453.83 1272.5,1526.5C 1260.5,1526.5 1248.5,1526.5 1236.5,1526.5C 1235.5,1597 1235.17,1667.66 1235.5,1738.5C 1308.83,1738.5 1382.17,1738.5 1455.5,1738.5C 1456.49,1729.01 1456.83,1719.35 1456.5,1709.5C 1480.83,1709.5 1505.17,1709.5 1529.5,1709.5C 1529.5,1718.83 1529.5,1728.17 1529.5,1737.5C 1663.83,1737.5 1798.17,1737.5 1932.5,1737.5C 1932.5,1728.17 1932.5,1718.83 1932.5,1709.5C 1920.17,1709.5 1907.83,1709.5 1895.5,1709.5C 1895.5,1697.5 1895.5,1685.5 1895.5,1673.5C 1871.17,1673.5 1846.83,1673.5 1822.5,1673.5C 1822.5,1661.17 1822.5,1648.83 1822.5,1636.5C 1847.17,1636.5 1871.83,1636.5 1896.5,1636.5C 1896.5,1648.5 1896.5,1660.5 1896.5,1672.5C 1920.83,1672.5 1945.17,1672.5 1969.5,1672.5C 1969.5,1684.83 1969.5,1697.17 1969.5,1709.5C 1981.83,1709.5 1994.17,1709.5 2006.5,1709.5C 2006.5,1718.83 2006.5,1728.17 2006.5,1737.5C 2092,1738.5 2177.67,1738.83 2263.5,1738.5C 2263.83,1667.66 2263.5,1597 2262.5,1526.5C 2250.5,1526.5 2238.5,1526.5 2226.5,1526.5C 2226.5,1453.83 2226.5,1381.17 2226.5,1308.5C 2214.68,1307.5 2202.68,1307.17 2190.5,1307.5C 2190.5,1283.5 2190.5,1259.5 2190.5,1235.5C 2202.68,1235.83 2214.68,1235.5 2226.5,1234.5C 2226.5,1222.5 2226.5,1210.5 2226.5,1198.5C 2238.83,1198.5 2251.17,1198.5 2263.5,1198.5C 2263.5,1186.5 2263.5,1174.5 2263.5,1162.5 Z"/></g>
<g><path style="opacity:1" fill="#000000" d="M 1272.5,1235.5 C 1284.5,1235.5 1296.5,1235.5 1308.5,1235.5C 1308.5,1259.5 1308.5,1283.5 1308.5,1307.5C 1296.5,1307.5 1284.5,1307.5 1272.5,1307.5C 1272.5,1283.5 1272.5,1259.5 1272.5,1235.5 Z"/></g>
<g><path style="opacity:1" fill="#000000" d="M 1676.5,1599.5 C 1725.17,1599.5 1773.83,1599.5 1822.5,1599.5C 1822.5,1611.83 1822.5,1624.17 1822.5,1636.5C 1773.83,1636.5 1725.17,1636.5 1676.5,1636.5C 1676.5,1624.17 1676.5,1611.83 1676.5,1599.5 Z"/></g>
<g><path style="opacity:1" fill="#756415" d="M 1676.5,1599.5 C 1676.5,1611.83 1676.5,1624.17 1676.5,1636.5C 1651.83,1636.5 1627.17,1636.5 1602.5,1636.5C 1626.66,1635.5 1650.99,1635.17 1675.5,1635.5C 1675.17,1623.32 1675.5,1611.32 1676.5,1599.5 Z"/></g>
<g><path style="opacity:1" fill="#756415" d="M 1822.5,1599.5 C 1823.5,1611.32 1823.83,1623.32 1823.5,1635.5C 1848.01,1635.17 1872.34,1635.5 1896.5,1636.5C 1871.83,1636.5 1847.17,1636.5 1822.5,1636.5C 1822.5,1624.17 1822.5,1611.83 1822.5,1599.5 Z"/></g>
<g><path style="opacity:1" fill="#fefefe" d="M 1676.5,1636.5 C 1725.17,1636.5 1773.83,1636.5 1822.5,1636.5C 1822.5,1648.83 1822.5,1661.17 1822.5,1673.5C 1846.83,1673.5 1871.17,1673.5 1895.5,1673.5C 1895.5,1685.5 1895.5,1697.5 1895.5,1709.5C 1907.83,1709.5 1920.17,1709.5 1932.5,1709.5C 1932.5,1718.83 1932.5,1728.17 1932.5,1737.5C 1798.17,1737.5 1663.83,1737.5 1529.5,1737.5C 1529.5,1728.17 1529.5,1718.83 1529.5,1709.5C 1554.17,1709.5 1578.83,1709.5 1603.5,1709.5C 1603.5,1697.5 1603.5,1685.5 1603.5,1673.5C 1627.83,1673.5 1652.17,1673.5 1676.5,1673.5C 1676.5,1661.17 1676.5,1648.83 1676.5,1636.5 Z"/></g>
<g><path style="opacity:1" fill="#000000" d="M 1602.5,1636.5 C 1627.17,1636.5 1651.83,1636.5 1676.5,1636.5C 1676.5,1648.83 1676.5,1661.17 1676.5,1673.5C 1652.17,1673.5 1627.83,1673.5 1603.5,1673.5C 1603.5,1685.5 1603.5,1697.5 1603.5,1709.5C 1578.83,1709.5 1554.17,1709.5 1529.5,1709.5C 1529.5,1709.17 1529.5,1708.83 1529.5,1708.5C 1529.5,1696.5 1529.5,1684.5 1529.5,1672.5C 1553.83,1672.5 1578.17,1672.5 1602.5,1672.5C 1602.5,1660.5 1602.5,1648.5 1602.5,1636.5 Z"/></g>
<g><path style="opacity:1" fill="#564a11" d="M 1529.5,1708.5 C 1529.5,1708.83 1529.5,1709.17 1529.5,1709.5C 1505.17,1709.5 1480.83,1709.5 1456.5,1709.5C 1456.83,1719.35 1456.49,1729.01 1455.5,1738.5C 1455.5,1738.17 1455.5,1737.83 1455.5,1737.5C 1455.5,1727.83 1455.5,1718.17 1455.5,1708.5C 1480.17,1708.5 1504.83,1708.5 1529.5,1708.5 Z"/></g>
<g><path style="opacity:1" fill="#a38a20" d="M 1236.5,1526.5 C 1236.5,1596.83 1236.5,1667.17 1236.5,1737.5C 1309.5,1737.5 1382.5,1737.5 1455.5,1737.5C 1455.5,1737.83 1455.5,1738.17 1455.5,1738.5C 1382.17,1738.5 1308.83,1738.5 1235.5,1738.5C 1235.17,1667.66 1235.5,1597 1236.5,1526.5 Z"/></g>
<g><path style="opacity:1" fill="#a38b20" d="M 2262.5,1526.5 C 2263.5,1597 2263.83,1667.66 2263.5,1738.5C 2177.67,1738.83 2092,1738.5 2006.5,1737.5C 2091.83,1737.5 2177.17,1737.5 2262.5,1737.5C 2262.5,1667.17 2262.5,1596.83 2262.5,1526.5 Z"/></g>
<g><path style="opacity:1" fill="#249f28" d="M 1077.5,1771.5 C 1077.5,1914.83 1077.5,2058.17 1077.5,2201.5C 1088.83,2201.5 1100.17,2201.5 1111.5,2201.5C 1111.5,2212.5 1111.5,2223.5 1111.5,2234.5C 1100.17,2234.5 1088.83,2234.5 1077.5,2234.5C 1077.5,2245.83 1077.5,2257.17 1077.5,2268.5C 1088.83,2268.5 1100.17,2268.5 1111.5,2268.5C 1111.5,2279.5 1111.5,2290.5 1111.5,2301.5C 1100.17,2301.5 1088.83,2301.5 1077.5,2301.5C 1077.5,2312.5 1077.5,2323.5 1077.5,2334.5C 1088.83,2334.5 1100.17,2334.5 1111.5,2334.5C 1111.5,2389.5 1111.5,2444.5 1111.5,2499.5C 1067.17,2499.5 1022.83,2499.5 978.5,2499.5C 978.5,2256.83 978.5,2014.17 978.5,1771.5C 1011.5,1771.5 1044.5,1771.5 1077.5,1771.5 Z"/></g>
<g><path style="opacity:1" fill="#249f28" d="M 1378.5,1771.5 C 1711.5,1771.5 2044.5,1771.5 2377.5,1771.5C 2377.5,1782.5 2377.5,1793.5 2377.5,1804.5C 2388.51,1804.33 2399.51,1804.5 2410.5,1805C 2411.49,1815.75 2411.82,1826.59 2411.5,1837.5C 2422.5,1837.5 2433.5,1837.5 2444.5,1837.5C 2444.33,1870.17 2444.5,1902.84 2445,1935.5C 2455.75,1936.49 2466.59,1936.82 2477.5,1936.5C 2477.81,1947.22 2477.48,1957.89 2476.5,1968.5C 2465.85,1969.5 2455.19,1969.83 2444.5,1969.5C 2444.5,1980.83 2444.5,1992.17 2444.5,2003.5C 2455.5,2003.5 2466.5,2003.5 2477.5,2003.5C 2477.5,2014.5 2477.5,2025.5 2477.5,2036.5C 2466.5,2036.5 2455.5,2036.5 2444.5,2036.5C 2444.5,2047.5 2444.5,2058.5 2444.5,2069.5C 2455.5,2069.5 2466.5,2069.5 2477.5,2069.5C 2477.5,2080.5 2477.5,2091.5 2477.5,2102.5C 2455.5,2102.5 2433.5,2102.5 2411.5,2102.5C 2411.5,2113.5 2411.5,2124.5 2411.5,2135.5C 2422.5,2135.5 2433.5,2135.5 2444.5,2135.5C 2444.19,2168.53 2444.52,2201.53 2445.5,2234.5C 2456.17,2234.5 2466.83,2234.5 2477.5,2234.5C 2477.5,2322.83 2477.5,2411.17 2477.5,2499.5C 2166.5,2499.5 1855.5,2499.5 1544.5,2499.5C 1544.5,2488.5 1544.5,2477.5 1544.5,2466.5C 1533.5,2466.5 1522.5,2466.5 1511.5,2466.5C 1511.5,2455.5 1511.5,2444.5 1511.5,2433.5C 1500.17,2433.5 1488.83,2433.5 1477.5,2433.5C 1477.5,2422.5 1477.5,2411.5 1477.5,2400.5C 1455.5,2400.5 1433.5,2400.5 1411.5,2400.5C 1411.5,2389.5 1411.5,2378.5 1411.5,2367.5C 1400.17,2367.5 1388.83,2367.5 1377.5,2367.5C 1377.5,2345.5 1377.5,2323.5 1377.5,2301.5C 1388.83,2301.5 1400.17,2301.5 1411.5,2301.5C 1411.5,2279.5 1411.5,2257.5 1411.5,2235.5C 1400.17,2235.5 1388.83,2235.5 1377.5,2235.5C 1377.18,2080.82 1377.51,1926.16 1378.5,1771.5 Z"/></g>
<g><path style="opacity:1" fill="#1b8a1b" d="M 2377.5,1771.5 C 2433.17,1771.5 2488.83,1771.5 2544.5,1771.5C 2544.5,2014.5 2544.5,2257.5 2544.5,2500.5C 2022.33,2500.83 1500.33,2500.5 978.5,2499.5C 1022.83,2499.5 1067.17,2499.5 1111.5,2499.5C 1133.5,2499.5 1155.5,2499.5 1177.5,2499.5C 1299.83,2499.5 1422.17,2499.5 1544.5,2499.5C 1855.5,2499.5 2166.5,2499.5 2477.5,2499.5C 2477.5,2411.17 2477.5,2322.83 2477.5,2234.5C 2466.83,2234.5 2456.17,2234.5 2445.5,2234.5C 2444.52,2201.53 2444.19,2168.53 2444.5,2135.5C 2433.5,2135.5 2422.5,2135.5 2411.5,2135.5C 2411.5,2124.5 2411.5,2113.5 2411.5,2102.5C 2433.5,2102.5 2455.5,2102.5 2477.5,2102.5C 2477.5,2091.5 2477.5,2080.5 2477.5,2069.5C 2466.5,2069.5 2455.5,2069.5 2444.5,2069.5C 2444.5,2058.5 2444.5,2047.5 2444.5,2036.5C 2455.5,2036.5 2466.5,2036.5 2477.5,2036.5C 2477.5,2025.5 2477.5,2014.5 2477.5,2003.5C 2466.5,2003.5 2455.5,2003.5 2444.5,2003.5C 2444.5,1992.17 2444.5,1980.83 2444.5,1969.5C 2455.19,1969.83 2465.85,1969.5 2476.5,1968.5C 2477.48,1957.89 2477.81,1947.22 2477.5,1936.5C 2466.59,1936.82 2455.75,1936.49 2445,1935.5C 2444.5,1902.84 2444.33,1870.17 2444.5,1837.5C 2433.5,1837.5 2422.5,1837.5 2411.5,1837.5C 2411.82,1826.59 2411.49,1815.75 2410.5,1805C 2399.51,1804.5 2388.51,1804.33 2377.5,1804.5C 2377.5,1793.5 2377.5,1782.5 2377.5,1771.5 Z"/></g>
<g><path style="opacity:1" fill="#43ba44" d="M 1177.5,1771.5 C 1244.5,1771.5 1311.5,1771.5 1378.5,1771.5C 1377.51,1926.16 1377.18,2080.82 1377.5,2235.5C 1388.83,2235.5 1400.17,2235.5 1411.5,2235.5C 1411.5,2257.5 1411.5,2279.5 1411.5,2301.5C 1400.17,2301.5 1388.83,2301.5 1377.5,2301.5C 1377.5,2323.5 1377.5,2345.5 1377.5,2367.5C 1388.83,2367.5 1400.17,2367.5 1411.5,2367.5C 1411.5,2378.5 1411.5,2389.5 1411.5,2400.5C 1433.5,2400.5 1455.5,2400.5 1477.5,2400.5C 1477.5,2411.5 1477.5,2422.5 1477.5,2433.5C 1488.83,2433.5 1500.17,2433.5 1511.5,2433.5C 1511.5,2444.5 1511.5,2455.5 1511.5,2466.5C 1522.5,2466.5 1533.5,2466.5 1544.5,2466.5C 1544.5,2477.5 1544.5,2488.5 1544.5,2499.5C 1422.17,2499.5 1299.83,2499.5 1177.5,2499.5C 1177.5,2295.5 1177.5,2091.5 1177.5,1887.5C 1178.49,1882.36 1178.82,1877.03 1178.5,1871.5C 1200.5,1871.5 1222.5,1871.5 1244.5,1871.5C 1244.83,1896.83 1245.17,1896.83 1245.5,1871.5C 1280.17,1871.17 1280.17,1870.83 1245.5,1870.5C 1245.17,1850.5 1244.83,1850.5 1244.5,1870.5C 1222.59,1870.83 1200.76,1870.49 1179,1869.5C 1178.83,1838 1178.33,1806.66 1177.5,1775.5C 1177.5,1774.17 1177.5,1772.83 1177.5,1771.5 Z"/></g>
<g><path style="opacity:1" fill="#6be96e" d="M 1077.5,1771.5 C 1110.83,1771.5 1144.17,1771.5 1177.5,1771.5C 1177.5,1772.83 1177.5,1774.17 1177.5,1775.5C 1177.5,1812.83 1177.5,1850.17 1177.5,1887.5C 1177.5,2091.5 1177.5,2295.5 1177.5,2499.5C 1155.5,2499.5 1133.5,2499.5 1111.5,2499.5C 1111.5,2444.5 1111.5,2389.5 1111.5,2334.5C 1100.17,2334.5 1088.83,2334.5 1077.5,2334.5C 1077.5,2323.5 1077.5,2312.5 1077.5,2301.5C 1088.83,2301.5 1100.17,2301.5 1111.5,2301.5C 1111.5,2290.5 1111.5,2279.5 1111.5,2268.5C 1100.17,2268.5 1088.83,2268.5 1077.5,2268.5C 1077.5,2257.17 1077.5,2245.83 1077.5,2234.5C 1088.83,2234.5 1100.17,2234.5 1111.5,2234.5C 1111.5,2223.5 1111.5,2212.5 1111.5,2201.5C 1100.17,2201.5 1088.83,2201.5 1077.5,2201.5C 1077.5,2058.17 1077.5,1914.83 1077.5,1771.5 Z"/></g>
<g><path style="opacity:1" fill="#3fa93d" d="M 1177.5,1775.5 C 1178.33,1806.66 1178.83,1838 1179,1869.5C 1200.76,1870.49 1222.59,1870.83 1244.5,1870.5C 1244.83,1850.5 1245.17,1850.5 1245.5,1870.5C 1280.17,1870.83 1280.17,1871.17 1245.5,1871.5C 1245.17,1896.83 1244.83,1896.83 1244.5,1871.5C 1222.5,1871.5 1200.5,1871.5 1178.5,1871.5C 1178.82,1877.03 1178.49,1882.36 1177.5,1887.5C 1177.5,1850.17 1177.5,1812.83 1177.5,1775.5 Z"/></g>
<g><path style="opacity:1" fill="#24a028" d="M 1611.5,2533.5 C 1744.83,2533.5 1878.17,2533.5 2011.5,2533.5C 2011.5,2544.5 2011.5,2555.5 2011.5,2566.5C 2022.5,2566.5 2033.5,2566.5 2044.5,2566.5C 2044.5,2555.5 2044.5,2544.5 2044.5,2533.5C 2055.5,2533.5 2066.5,2533.5 2077.5,2533.5C 2077.5,2544.5 2077.5,2555.5 2077.5,2566.5C 2088.83,2566.5 2100.17,2566.5 2111.5,2566.5C 2111.5,2599.5 2111.5,2632.5 2111.5,2665.5C 2122.41,2665.82 2133.25,2665.49 2144,2664.5C 2144.5,2708.83 2144.67,2753.17 2144.5,2797.5C 2133.48,2797.17 2122.48,2797.5 2111.5,2798.5C 2110.52,2809.45 2110.19,2820.45 2110.5,2831.5C 2132.83,2831.5 2155.17,2831.5 2177.5,2831.5C 2177.67,2842.17 2177.5,2852.84 2177,2863.5C 2166.25,2864.49 2155.41,2864.82 2144.5,2864.5C 2144.5,2875.5 2144.5,2886.5 2144.5,2897.5C 2155.5,2897.5 2166.5,2897.5 2177.5,2897.5C 2177.5,2908.5 2177.5,2919.5 2177.5,2930.5C 2166.5,2930.5 2155.5,2930.5 2144.5,2930.5C 2144.5,2941.5 2144.5,2952.5 2144.5,2963.5C 2155.5,2963.5 2166.5,2963.5 2177.5,2963.5C 2177.5,3261.83 2177.5,3560.17 2177.5,3858.5C 2010.83,3858.5 1844.17,3858.5 1677.5,3858.5C 1677.5,3626.5 1677.5,3394.5 1677.5,3162.5C 1666.5,3162.5 1655.5,3162.5 1644.5,3162.5C 1644.5,3140.17 1644.5,3117.83 1644.5,3095.5C 1633.5,3095.5 1622.5,3095.5 1611.5,3095.5C 1611.5,3084.5 1611.5,3073.5 1611.5,3062.5C 1622.5,3062.5 1633.5,3062.5 1644.5,3062.5C 1644.5,2996.5 1644.5,2930.5 1644.5,2864.5C 1633.5,2864.5 1622.5,2864.5 1611.5,2864.5C 1611.5,2754.17 1611.5,2643.83 1611.5,2533.5 Z"/></g>
<g><path style="opacity:1" fill="#1b8c1c" d="M 2077.5,2533.5 C 2210.83,2533.5 2344.17,2533.5 2477.5,2533.5C 2477.5,2555.5 2477.5,2577.5 2477.5,2599.5C 2466.5,2599.5 2455.5,2599.5 2444.5,2599.5C 2444.5,3019.17 2444.5,3438.83 2444.5,3858.5C 2355.5,3858.5 2266.5,3858.5 2177.5,3858.5C 2177.5,3560.17 2177.5,3261.83 2177.5,2963.5C 2166.5,2963.5 2155.5,2963.5 2144.5,2963.5C 2144.5,2952.5 2144.5,2941.5 2144.5,2930.5C 2155.5,2930.5 2166.5,2930.5 2177.5,2930.5C 2177.5,2919.5 2177.5,2908.5 2177.5,2897.5C 2166.5,2897.5 2155.5,2897.5 2144.5,2897.5C 2144.5,2886.5 2144.5,2875.5 2144.5,2864.5C 2155.41,2864.82 2166.25,2864.49 2177,2863.5C 2177.5,2852.84 2177.67,2842.17 2177.5,2831.5C 2155.17,2831.5 2132.83,2831.5 2110.5,2831.5C 2110.19,2820.45 2110.52,2809.45 2111.5,2798.5C 2122.48,2797.5 2133.48,2797.17 2144.5,2797.5C 2144.67,2753.17 2144.5,2708.83 2144,2664.5C 2133.25,2665.49 2122.41,2665.82 2111.5,2665.5C 2111.5,2632.5 2111.5,2599.5 2111.5,2566.5C 2100.17,2566.5 2088.83,2566.5 2077.5,2566.5C 2077.5,2555.5 2077.5,2544.5 2077.5,2533.5 Z"/></g>
<g><path style="opacity:1" fill="#239f27" d="M 1211.5,2533.5 C 1211.5,2665.83 1211.5,2798.17 1211.5,2930.5C 1222.5,2930.5 1233.5,2930.5 1244.5,2930.5C 1244.5,3239.83 1244.5,3549.17 1244.5,3858.5C 1188.83,3858.5 1133.17,3858.5 1077.5,3858.5C 1077.5,3438.83 1077.5,3019.17 1077.5,2599.5C 1066.5,2599.5 1055.5,2599.5 1044.5,2599.5C 1044.5,2577.5 1044.5,2555.5 1044.5,2533.5C 1100.17,2533.5 1155.83,2533.5 1211.5,2533.5 Z"/></g>
<g><path style="opacity:1" fill="#6be96e" d="M 1211.5,2533.5 C 1255.83,2533.5 1300.17,2533.5 1344.5,2533.5C 1344.5,2975.17 1344.5,3416.83 1344.5,3858.5C 1311.17,3858.5 1277.83,3858.5 1244.5,3858.5C 1244.5,3549.17 1244.5,3239.83 1244.5,2930.5C 1233.5,2930.5 1222.5,2930.5 1211.5,2930.5C 1211.5,2798.17 1211.5,2665.83 1211.5,2533.5 Z"/></g>
<g><path style="opacity:1" fill="#43ba43" d="M 1344.5,2533.5 C 1433.5,2533.5 1522.5,2533.5 1611.5,2533.5C 1611.5,2643.83 1611.5,2754.17 1611.5,2864.5C 1622.5,2864.5 1633.5,2864.5 1644.5,2864.5C 1644.5,2930.5 1644.5,2996.5 1644.5,3062.5C 1633.5,3062.5 1622.5,3062.5 1611.5,3062.5C 1611.5,3073.5 1611.5,3084.5 1611.5,3095.5C 1622.5,3095.5 1633.5,3095.5 1644.5,3095.5C 1644.5,3117.83 1644.5,3140.17 1644.5,3162.5C 1655.5,3162.5 1666.5,3162.5 1677.5,3162.5C 1677.5,3394.5 1677.5,3626.5 1677.5,3858.5C 1566.5,3858.5 1455.5,3858.5 1344.5,3858.5C 1344.5,3416.83 1344.5,2975.17 1344.5,2533.5 Z"/></g>
<g><path style="opacity:1" fill="#1c8c1c" d="M 2011.5,2533.5 C 2022.5,2533.5 2033.5,2533.5 2044.5,2533.5C 2044.5,2544.5 2044.5,2555.5 2044.5,2566.5C 2033.5,2566.5 2022.5,2566.5 2011.5,2566.5C 2011.5,2555.5 2011.5,2544.5 2011.5,2533.5 Z"/></g>
<g><path style="opacity:1" fill="#000000" d="M 1044.5,2599.5 C 1055.5,2599.5 1066.5,2599.5 1077.5,2599.5C 1077.5,3019.17 1077.5,3438.83 1077.5,3858.5C 1066.5,3858.5 1055.5,3858.5 1044.5,3858.5C 1044.5,3438.83 1044.5,3019.17 1044.5,2599.5 Z"/></g>
</svg>
